ISO-10303-21;
HEADER;
FILE_DESCRIPTION (( 'STEP AP214' ),
    '1' );
FILE_NAME ('SC-ZT80X35-K170.STEP',
    '2026-07-14T06:57:25',
    ( '' ),
    ( '' ),
    'SwSTEP 2.0',
    'SolidWorks 2022',
    '' );
FILE_SCHEMA (( 'AUTOMOTIVE_DESIGN' ));
ENDSEC;

DATA;
#1 = CYLINDRICAL_SURFACE ( 'NONE', #445, 0.9999999999999870104 ) ;
#2 = CARTESIAN_POINT ( 'NONE',  ( 50.00000000000000000, -17.49999999999999289, 35.00000000000002842 ) ) ;
#3 = DIRECTION ( 'NONE',  ( -0.000000000000000000, -0.000000000000000000, -1.000000000000000000 ) ) ;
#4 = CARTESIAN_POINT ( 'NONE',  ( 50.00000000000000000, -15.94999999999998508, 34.00000000000000000 ) ) ;
#5 = ORIENTED_EDGE ( 'NONE', *, *, #321, .T. ) ;
#6 = ORIENTED_EDGE ( 'NONE', *, *, #846, .T. ) ;
#7 = DIRECTION ( 'NONE',  ( -0.000000000000000000, 0.000000000000000000, 1.000000000000000000 ) ) ;
#8 = EDGE_CURVE ( 'NONE', #14, #152, #1027, .T. ) ;
#9 = CIRCLE ( 'NONE', #905, 5.000000000000004441 ) ;
#10 = LINE ( 'NONE', #340, #775 ) ;
#11 = VECTOR ( 'NONE', #1028, 1000.000000000000000 ) ;
#12 = CARTESIAN_POINT ( 'NONE',  ( 50.00000000000000000, -12.39999999999998792, 35.10000000000002274 ) ) ;
#13 = ORIENTED_EDGE ( 'NONE', *, *, #1092, .F. ) ;
#14 = VERTEX_POINT ( 'NONE', #1337 ) ;
#15 = DIRECTION ( 'NONE',  ( 1.000000000000000000, 0.000000000000000000, 0.000000000000000000 ) ) ;
#16 = DIRECTION ( 'NONE',  ( 0.000000000000000000, -0.000000000000000000, -1.000000000000000000 ) ) ;
#17 = EDGE_CURVE ( 'NONE', #763, #391, #382, .T. ) ;
#18 = AXIS2_PLACEMENT_3D ( 'NONE', #854, #1059, #1342 ) ;
#19 = VERTEX_POINT ( 'NONE', #1123 ) ;
#20 = DIRECTION ( 'NONE',  ( -0.000000000000000000, 4.289498049685655044E-13, -1.000000000000000000 ) ) ;
#21 = CARTESIAN_POINT ( 'NONE',  ( 50.00000000000000000, -13.19999999999998863, 36.69999999999999574 ) ) ;
#22 = DIRECTION ( 'NONE',  ( 0.000000000000000000, 0.000000000000000000, 1.000000000000000000 ) ) ;
#23 = VERTEX_POINT ( 'NONE', #281 ) ;
#24 = ADVANCED_FACE ( 'NONE', ( #187 ), #92, .T. ) ;
#25 = DIRECTION ( 'NONE',  ( -1.000000000000000000, -0.000000000000000000, -0.000000000000000000 ) ) ;
#26 = ORIENTED_EDGE ( 'NONE', *, *, #1200, .F. ) ;
#27 = VECTOR ( 'NONE', #655, 1000.000000000000000 ) ;
#28 = CARTESIAN_POINT ( 'NONE',  ( -50.00000000000000000, -12.49999999999999112, -35.00000000000002842 ) ) ;
#29 = LINE ( 'NONE', #47, #55 ) ;
#30 = VECTOR ( 'NONE', #359, 1000.000000000000000 ) ;
#31 = VECTOR ( 'NONE', #300, 1000.000000000000000 ) ;
#32 = EDGE_LOOP ( 'NONE', ( #915, #814, #1286, #930 ) ) ;
#33 = DIRECTION ( 'NONE',  ( 0.000000000000000000, 0.000000000000000000, -1.000000000000000000 ) ) ;
#34 = CIRCLE ( 'NONE', #270, 5.000000000000004441 ) ;
#35 = PRODUCT_DEFINITION ( '未知', '', #1063, #698 ) ;
#36 = EDGE_CURVE ( 'NONE', #827, #314, #80, .T. ) ;
#37 = PLANE ( 'NONE',  #1231 ) ;
#38 = DIRECTION ( 'NONE',  ( 0.000000000000000000, 0.000000000000000000, -1.000000000000000000 ) ) ;
#39 = CARTESIAN_POINT ( 'NONE',  ( -50.00000000000000000, 12.50000000000001066, -40.00000000000003553 ) ) ;
#40 = ORIENTED_EDGE ( 'NONE', *, *, #52, .T. ) ;
#41 = CARTESIAN_POINT ( 'NONE',  ( 50.00000000000000000, 10.95000000000000107, -38.50000000000009237 ) ) ;
#42 = ORIENTED_EDGE ( 'NONE', *, *, #1138, .T. ) ;
#43 = SURFACE_STYLE_USAGE ( .BOTH. , #1077 ) ;
#44 = EDGE_CURVE ( 'NONE', #505, #342, #1218, .T. ) ;
#45 = CARTESIAN_POINT ( 'NONE',  ( -50.00000000000000000, 12.50000000000001066, 40.00000000000003553 ) ) ;
#46 = DIRECTION ( 'NONE',  ( -0.000000000000000000, -1.000000000000000000, -0.000000000000000000 ) ) ;
#47 = CARTESIAN_POINT ( 'NONE',  ( 50.00000000000000000, -10.94999999999997975, 34.00000000000000000 ) ) ;
#48 = EDGE_LOOP ( 'NONE', ( #735, #1167, #1043, #1239 ) ) ;
#49 = DIRECTION ( 'NONE',  ( -1.000000000000000000, -0.000000000000000000, -0.000000000000000000 ) ) ;
#50 = EDGE_LOOP ( 'NONE', ( #540, #144, #1288, #26, #1023, #963, #1224, #396, #1003, #1066, #475, #438, #180, #646, #1246, #500, #1135, #1091, #709, #893, #773, #265, #755, #488, #395, #1018, #1113, #271, #1150, #620 ) ) ;
#51 = DIRECTION ( 'NONE',  ( -0.000000000000000000, -1.000000000000000000, -0.000000000000000000 ) ) ;
#52 = EDGE_CURVE ( 'NONE', #520, #994, #1226, .T. ) ;
#53 = CARTESIAN_POINT ( 'NONE',  ( 50.00000000000000000, -15.94999999999998508, -34.00000000000002842 ) ) ;
#54 = ORIENTED_EDGE ( 'NONE', *, *, #1200, .T. ) ;
#55 = VECTOR ( 'NONE', #672, 1000.000000000000000 ) ;
#56 = CARTESIAN_POINT ( 'NONE',  ( 50.00000000000000000, -13.99999999999999112, -34.00000000000002842 ) ) ;
#57 = CIRCLE ( 'NONE', #1335, 1.000000000000000888 ) ;
#58 = EDGE_LOOP ( 'NONE', ( #457, #1071, #1176, #157 ) ) ;
#59 = AXIS2_PLACEMENT_3D ( 'NONE', #909, #1015, #186 ) ;
#60 = CARTESIAN_POINT ( 'NONE',  ( 50.00000000000000000, 14.00000000000001243, 34.00000000000000000 ) ) ;
#61 = CYLINDRICAL_SURFACE ( 'NONE', #534, 5.000000000000000888 ) ;
#62 = ORIENTED_EDGE ( 'NONE', *, *, #1000, .T. ) ;
#63 = EDGE_CURVE ( 'NONE', #123, #875, #305, .T. ) ;
#64 = CARTESIAN_POINT ( 'NONE',  ( 50.00000000000000000, -12.39999999999998792, 34.00000000000000000 ) ) ;
#65 = VERTEX_POINT ( 'NONE', #705 ) ;
#66 = CARTESIAN_POINT ( 'NONE',  ( 50.00000000000000000, -13.19999999999998863, 35.70000000000000995 ) ) ;
#67 = PLANE ( 'NONE',  #511 ) ;
#68 = ORIENTED_EDGE ( 'NONE', *, *, #835, .T. ) ;
#69 = PLANE ( 'NONE',  #1076 ) ;
#70 = ADVANCED_FACE ( 'NONE', ( #285 ), #719, .F. ) ;
#71 = ORIENTED_EDGE ( 'NONE', *, *, #917, .F. ) ;
#72 = DIRECTION ( 'NONE',  ( 0.000000000000000000, -1.000000000000000000, 0.000000000000000000 ) ) ;
#73 = DIRECTION ( 'NONE',  ( 1.000000000000000000, 0.000000000000000000, 0.000000000000000000 ) ) ;
#74 = DIRECTION ( 'NONE',  ( -1.000000000000000000, -0.000000000000000000, -0.000000000000000000 ) ) ;
#75 = ORIENTED_EDGE ( 'NONE', *, *, #1194, .T. ) ;
#76 = VECTOR ( 'NONE', #264, 1000.000000000000000 ) ;
#77 = AXIS2_PLACEMENT_3D ( 'NONE', #871, #1284, #352 ) ;
#78 = EDGE_CURVE ( 'NONE', #1019, #219, #1222, .T. ) ;
#79 = DIRECTION ( 'NONE',  ( -0.000000000000000000, -1.000000000000000000, -0.000000000000000000 ) ) ;
#80 = LINE ( 'NONE', #393, #118 ) ;
#81 = FACE_OUTER_BOUND ( 'NONE', #377, .T. ) ;
#82 = VERTEX_POINT ( 'NONE', #99 ) ;
#83 = ORIENTED_EDGE ( 'NONE', *, *, #508, .F. ) ;
#84 = CARTESIAN_POINT ( 'NONE',  ( -50.00000000000000000, -15.94999999999998508, 34.00000000000000000 ) ) ;
#85 = EDGE_CURVE ( 'NONE', #313, #1311, #497, .T. ) ;
#86 = DIRECTION ( 'NONE',  ( 1.000000000000000000, 0.000000000000000000, 0.000000000000000000 ) ) ;
#87 = DIRECTION ( 'NONE',  ( -0.000000000000000000, -0.000000000000000000, 1.000000000000000000 ) ) ;
#88 = ORIENTED_EDGE ( 'NONE', *, *, #463, .T. ) ;
#89 = VERTEX_POINT ( 'NONE', #912 ) ;
#90 = CARTESIAN_POINT ( 'NONE',  ( -50.00000000000000000, 12.50000000000001066, -35.00000000000002842 ) ) ;
#91 = EDGE_CURVE ( 'NONE', #283, #1019, #1314, .T. ) ;
#92 = PLANE ( 'NONE',  #532 ) ;
#93 = DIRECTION ( 'NONE',  ( -1.000000000000000000, -0.000000000000000000, -0.000000000000000000 ) ) ;
#94 = ORIENTED_EDGE ( 'NONE', *, *, #329, .T. ) ;
#95 = VECTOR ( 'NONE', #864, 1000.000000000000000 ) ;
#96 = CARTESIAN_POINT ( 'NONE',  ( -50.00000000000000000, 14.00000000000001243, 34.00000000000000000 ) ) ;
#97 = VECTOR ( 'NONE', #768, 1000.000000000000000 ) ;
#98 = VECTOR ( 'NONE', #304, 1000.000000000000000 ) ;
#99 = CARTESIAN_POINT ( 'NONE',  ( 50.00000000000000000, 14.00000000000001243, 34.00000000000000000 ) ) ;
#100 = CARTESIAN_POINT ( 'NONE',  ( 50.00000000000000000, 13.20000000000000284, 35.69999999999998153 ) ) ;
#101 = VERTEX_POINT ( 'NONE', #817 ) ;
#102 = ADVANCED_FACE ( 'NONE', ( #1133 ), #805, .T. ) ;
#103 = VERTEX_POINT ( 'NONE', #713 ) ;
#104 = FACE_OUTER_BOUND ( 'NONE', #715, .T. ) ;
#105 = CARTESIAN_POINT ( 'NONE',  ( -50.00000000000000000, 14.00000000000001243, -34.00000000000002842 ) ) ;
#106 = CARTESIAN_POINT ( 'NONE',  ( -50.00000000000000000, -13.19999999999998863, 35.70000000000000995 ) ) ;
#107 = LINE ( 'NONE', #838, #1053 ) ;
#108 = ORIENTED_EDGE ( 'NONE', *, *, #303, .T. ) ;
#109 = ADVANCED_FACE ( 'NONE', ( #516, #933 ), #1128, .F. ) ;
#110 = PLANE ( 'NONE',  #745 ) ;
#111 = APPLICATION_CONTEXT ( 'automotive_design' ) ;
#112 = CARTESIAN_POINT ( 'NONE',  ( 50.00000000000000000, -17.49999999999999289, 35.00000000000002842 ) ) ;
#113 = DIRECTION ( 'NONE',  ( 0.000000000000000000, -1.000000000000000000, -4.037174634998162151E-13 ) ) ;
#114 = VECTOR ( 'NONE', #528, 1000.000000000000000 ) ;
#115 = ORIENTED_EDGE ( 'NONE', *, *, #171, .T. ) ;
#116 = ORIENTED_EDGE ( 'NONE', *, *, #1014, .T. ) ;
#117 = CARTESIAN_POINT ( 'NONE',  ( 50.00000000000000000, 17.50000000000001421, -35.00000000000002842 ) ) ;
#118 = VECTOR ( 'NONE', #695, 1000.000000000000000 ) ;
#119 = VECTOR ( 'NONE', #1345, 1000.000000000000000 ) ;
#120 = VECTOR ( 'NONE', #149, 1000.000000000000000 ) ;
#121 = DIRECTION ( 'NONE',  ( 0.000000000000000000, -1.000000000000000000, 0.000000000000000000 ) ) ;
#122 = VECTOR ( 'NONE', #20, 1000.000000000000000 ) ;
#123 = VERTEX_POINT ( 'NONE', #906 ) ;
#124 = DIRECTION ( 'NONE',  ( 0.000000000000000000, 0.000000000000000000, -1.000000000000000000 ) ) ;
#125 = ORIENTED_EDGE ( 'NONE', *, *, #1117, .T. ) ;
#126 = LINE ( 'NONE', #1051, #924 ) ;
#127 = EDGE_CURVE ( 'NONE', #979, #994, #959, .T. ) ;
#128 = DIRECTION ( 'NONE',  ( 0.000000000000000000, 0.000000000000000000, -1.000000000000000000 ) ) ;
#129 = ORIENTED_EDGE ( 'NONE', *, *, #1194, .F. ) ;
#130 = CARTESIAN_POINT ( 'NONE',  ( 50.00000000000000000, 13.20000000000000284, -35.70000000000006679 ) ) ;
#131 = ORIENTED_EDGE ( 'NONE', *, *, #1007, .T. ) ;
#132 = CARTESIAN_POINT ( 'NONE',  ( 50.00000000000000000, -13.99999999999999112, -35.10000000000002274 ) ) ;
#133 = LINE ( 'NONE', #549, #76 ) ;
#134 = EDGE_CURVE ( 'NONE', #459, #1295, #623, .T. ) ;
#135 = EDGE_LOOP ( 'NONE', ( #950, #788, #201, #632 ) ) ;
#136 = EDGE_CURVE ( 'NONE', #65, #520, #1243, .T. ) ;
#137 = CARTESIAN_POINT ( 'NONE',  ( 50.00000000000000000, -12.49999999999999112, -40.00000000000003553 ) ) ;
#138 = VERTEX_POINT ( 'NONE', #1140 ) ;
#139 = LINE ( 'NONE', #870, #1166 ) ;
#140 = LINE ( 'NONE', #416, #597 ) ;
#141 = LINE ( 'NONE', #558, #883 ) ;
#142 = VECTOR ( 'NONE', #665, 1000.000000000000000 ) ;
#143 = VECTOR ( 'NONE', #552, 1000.000000000000000 ) ;
#144 = ORIENTED_EDGE ( 'NONE', *, *, #280, .F. ) ;
#145 = CARTESIAN_POINT ( 'NONE',  ( -50.00000000000000000, -13.19999999999999574, -35.70000000000006679 ) ) ;
#146 = EDGE_CURVE ( 'NONE', #889, #1019, #235, .T. ) ;
#147 = CARTESIAN_POINT ( 'NONE',  ( -50.00000000000000000, 10.95000000000000107, -34.00000000000002842 ) ) ;
#148 = CARTESIAN_POINT ( 'NONE',  ( -50.00000000000000000, 17.50000000000001421, 35.00000000000002842 ) ) ;
#149 = DIRECTION ( 'NONE',  ( -0.000000000000000000, -0.000000000000000000, -1.000000000000000000 ) ) ;
#150 = VERTEX_POINT ( 'NONE', #1250 ) ;
#151 = CARTESIAN_POINT ( 'NONE',  ( 50.00000000000000000, -10.94999999999997975, 34.00000000000000000 ) ) ;
#152 = VERTEX_POINT ( 'NONE', #105 ) ;
#153 = DIRECTION ( 'NONE',  ( 0.000000000000000000, 0.000000000000000000, 1.000000000000000000 ) ) ;
#154 = DIRECTION ( 'NONE',  ( 1.000000000000000000, 0.000000000000000000, 0.000000000000000000 ) ) ;
#155 = VERTEX_POINT ( 'NONE', #441 ) ;
#156 =( NAMED_UNIT ( * ) SI_UNIT ( $, .STERADIAN. ) SOLID_ANGLE_UNIT ( ) );
#157 = ORIENTED_EDGE ( 'NONE', *, *, #551, .T. ) ;
#158 = SURFACE_STYLE_FILL_AREA ( #980 ) ;
#159 = LINE ( 'NONE', #12, #621 ) ;
#160 = EDGE_CURVE ( 'NONE', #1152, #14, #726, .T. ) ;
#161 = CARTESIAN_POINT ( 'NONE',  ( -50.00000000000000000, -17.49999999999998934, -35.00000000000002842 ) ) ;
#162 = AXIS2_PLACEMENT_3D ( 'NONE', #897, #1236, #704 ) ;
#163 = ORIENTED_EDGE ( 'NONE', *, *, #183, .F. ) ;
#164 = VECTOR ( 'NONE', #346, 1000.000000000000000 ) ;
#165 = CIRCLE ( 'NONE', #749, 0.9999999999999800160 ) ;
#166 = ORIENTED_EDGE ( 'NONE', *, *, #1181, .F. ) ;
#167 = CIRCLE ( 'NONE', #206, 0.9999999999999800160 ) ;
#168 = UNCERTAINTY_MEASURE_WITH_UNIT (LENGTH_MEASURE( 1.000000000000000082E-05 ), #434, 'distance_accuracy_value', 'NONE');
#169 = LINE ( 'NONE', #358, #1161 ) ;
#170 = CARTESIAN_POINT ( 'NONE',  ( 50.00000000000000000, 15.95000000000000639, 34.00000000000000000 ) ) ;
#171 = EDGE_CURVE ( 'NONE', #691, #1152, #1269, .T. ) ;
#172 = ORIENTED_EDGE ( 'NONE', *, *, #527, .F. ) ;
#173 = LINE ( 'NONE', #492, #777 ) ;
#174 = ORIENTED_EDGE ( 'NONE', *, *, #644, .T. ) ;
#175 = FACE_OUTER_BOUND ( 'NONE', #585, .T. ) ;
#176 = DIRECTION ( 'NONE',  ( -0.000000000000000000, 4.289498049685655044E-13, -1.000000000000000000 ) ) ;
#177 = EDGE_LOOP ( 'NONE', ( #977, #1118, #899, #1098 ) ) ;
#178 = ADVANCED_FACE ( 'NONE', ( #214 ), #207, .T. ) ;
#179 = LINE ( 'NONE', #1229, #863 ) ;
#180 = ORIENTED_EDGE ( 'NONE', *, *, #309, .F. ) ;
#181 = DIRECTION ( 'NONE',  ( -1.000000000000000000, -0.000000000000000000, -0.000000000000000000 ) ) ;
#182 = ORIENTED_EDGE ( 'NONE', *, *, #917, .T. ) ;
#183 = EDGE_CURVE ( 'NONE', #955, #606, #529, .T. ) ;
#184 = EDGE_LOOP ( 'NONE', ( #62, #349, #1274, #666 ) ) ;
#185 = AXIS2_PLACEMENT_3D ( 'NONE', #273, #74, #1301 ) ;
#186 = DIRECTION ( 'NONE',  ( 0.000000000000000000, 0.000000000000000000, -1.000000000000000000 ) ) ;
#187 = FACE_OUTER_BOUND ( 'NONE', #48, .T. ) ;
#188 = DIRECTION ( 'NONE',  ( 0.000000000000000000, 0.000000000000000000, 1.000000000000000000 ) ) ;
#189 = ORIENTED_EDGE ( 'NONE', *, *, #208, .F. ) ;
#190 = ORIENTED_EDGE ( 'NONE', *, *, #1329, .T. ) ;
#191 = EDGE_CURVE ( 'NONE', #82, #424, #523, .T. ) ;
#192 = DIRECTION ( 'NONE',  ( 0.000000000000000000, -0.000000000000000000, -1.000000000000000000 ) ) ;
#193 = AXIS2_PLACEMENT_3D ( 'NONE', #766, #1188, #648 ) ;
#194 = CARTESIAN_POINT ( 'NONE',  ( -50.00000000000000000, 12.50000000000001066, 35.00000000000002842 ) ) ;
#195 = DIRECTION ( 'NONE',  ( -1.000000000000000000, -0.000000000000000000, -0.000000000000000000 ) ) ;
#196 = EDGE_LOOP ( 'NONE', ( #328, #721, #896, #583 ) ) ;
#197 = DIRECTION ( 'NONE',  ( 0.000000000000000000, 0.000000000000000000, -1.000000000000000000 ) ) ;
#199 = DIRECTION ( 'NONE',  ( -0.000000000000000000, 0.000000000000000000, 1.000000000000000000 ) ) ;
#198 = VECTOR ( 'NONE', #1168, 1000.000000000000000 ) ;
#200 = CYLINDRICAL_SURFACE ( 'NONE', #205, 1.000000000000014655 ) ;
#201 = ORIENTED_EDGE ( 'NONE', *, *, #146, .T. ) ;
#202 = CLOSED_SHELL ( 'NONE', ( #859, #694, #278, #109, #960, #1143, #351, #388, #344, #804, #1249, #1044, #578, #686, #1235, #1292, #795, #946, #495, #789, #521, #902, #178, #741, #216, #102, #24, #803, #1183, #70, #931, #1281, #242, #1035, #1084, #759, #710, #910, #1322, #334 ) ) ;
#203 = ORIENTED_EDGE ( 'NONE', *, *, #91, .T. ) ;
#204 = AXIS2_PLACEMENT_3D ( 'NONE', #941, #635, #855 ) ;
#205 = AXIS2_PLACEMENT_3D ( 'NONE', #1244, #311, #209 ) ;
#206 = AXIS2_PLACEMENT_3D ( 'NONE', #1321, #1221, #1334 ) ;
#207 = PLANE ( 'NONE',  #1185 ) ;
#208 = EDGE_CURVE ( 'NONE', #451, #955, #507, .T. ) ;
#209 = DIRECTION ( 'NONE',  ( 0.000000000000000000, 0.000000000000000000, 1.000000000000000000 ) ) ;
#210 = PLANE ( 'NONE',  #639 ) ;
#211 = ORIENTED_EDGE ( 'NONE', *, *, #292, .T. ) ;
#212 = VERTEX_POINT ( 'NONE', #112 ) ;
#213 = LINE ( 'NONE', #96, #198 ) ;
#214 = FACE_OUTER_BOUND ( 'NONE', #245, .T. ) ;
#215 = DIRECTION ( 'NONE',  ( 0.000000000000000000, -1.000000000000000000, 0.000000000000000000 ) ) ;
#216 = ADVANCED_FACE ( 'NONE', ( #830 ), #954, .T. ) ;
#217 = VERTEX_POINT ( 'NONE', #1170 ) ;
#218 = EDGE_CURVE ( 'NONE', #881, #1055, #10, .T. ) ;
#219 = VERTEX_POINT ( 'NONE', #326 ) ;
#220 = DIRECTION ( 'NONE',  ( -1.000000000000000000, -0.000000000000000000, -0.000000000000000000 ) ) ;
#221 = DIRECTION ( 'NONE',  ( 1.000000000000000000, 0.000000000000000000, 0.000000000000000000 ) ) ;
#222 = ORIENTED_EDGE ( 'NONE', *, *, #127, .T. ) ;
#223 = CARTESIAN_POINT ( 'NONE',  ( 50.00000000000000000, 12.40000000000002167, 34.00000000000000000 ) ) ;
#224 = EDGE_CURVE ( 'NONE', #842, #313, #1121, .T. ) ;
#225 = LINE ( 'NONE', #1031, #435 ) ;
#226 = VECTOR ( 'NONE', #1298, 1000.000000000000000 ) ;
#227 = AXIS2_PLACEMENT_3D ( 'NONE', #1149, #113, #320 ) ;
#228 = PLANE ( 'NONE',  #747 ) ;
#229 = AXIS2_PLACEMENT_3D ( 'NONE', #876, #571, #739 ) ;
#230 = ORIENTED_EDGE ( 'NONE', *, *, #1092, .T. ) ;
#231 = CARTESIAN_POINT ( 'NONE',  ( -50.00000000000000000, -13.99999999999999112, 34.00000000000000000 ) ) ;
#232 = ORIENTED_EDGE ( 'NONE', *, *, #1151, .T. ) ;
#233 = EDGE_CURVE ( 'NONE', #212, #808, #738, .T. ) ;
#234 = DIRECTION ( 'NONE',  ( -0.000000000000000000, 4.037174634998263630E-13, -1.000000000000000000 ) ) ;
#235 = LINE ( 'NONE', #1148, #925 ) ;
#236 = VECTOR ( 'NONE', #535, 1000.000000000000000 ) ;
#237 = EDGE_LOOP ( 'NONE', ( #347, #125, #307, #1115, #900, #1106, #131, #559 ) ) ;
#238 = DIRECTION ( 'NONE',  ( 0.000000000000000000, -0.000000000000000000, 1.000000000000000000 ) ) ;
#239 = DIRECTION ( 'NONE',  ( -0.000000000000000000, 1.000000000000000000, -0.000000000000000000 ) ) ;
#240 = DIRECTION ( 'NONE',  ( -1.000000000000000000, -0.000000000000000000, -0.000000000000000000 ) ) ;
#241 = CYLINDRICAL_SURFACE ( 'NONE', #904, 5.000000000000004441 ) ;
#242 = ADVANCED_FACE ( 'NONE', ( #436 ), #228, .T. ) ;
#243 = ORIENTED_EDGE ( 'NONE', *, *, #868, .F. ) ;
#244 = DIRECTION ( 'NONE',  ( 0.000000000000000000, 0.000000000000000000, -1.000000000000000000 ) ) ;
#245 = EDGE_LOOP ( 'NONE', ( #129, #1006, #514, #676 ) ) ;
#246 = FILL_AREA_STYLE_COLOUR ( '', #892 ) ;
#247 = DIRECTION ( 'NONE',  ( 0.000000000000000000, 0.000000000000000000, -1.000000000000000000 ) ) ;
#248 = LINE ( 'NONE', #664, #841 ) ;
#249 = CARTESIAN_POINT ( 'NONE',  ( 50.00000000000000000, 14.00000000000001243, -34.00000000000002842 ) ) ;
#250 = VECTOR ( 'NONE', #465, 1000.000000000000000 ) ;
#251 = AXIS2_PLACEMENT_3D ( 'NONE', #647, #33, #458 ) ;
#252 = VERTEX_POINT ( 'NONE', #1060 ) ;
#253 = EDGE_CURVE ( 'NONE', #908, #828, #272, .T. ) ;
#254 = DIRECTION ( 'NONE',  ( -1.000000000000000000, -0.000000000000000000, -0.000000000000000000 ) ) ;
#255 = ORIENTED_EDGE ( 'NONE', *, *, #562, .T. ) ;
#256 = DIRECTION ( 'NONE',  ( -0.000000000000000000, -0.000000000000000000, 1.000000000000000000 ) ) ;
#257 = LINE ( 'NONE', #671, #97 ) ;
#258 = DIRECTION ( 'NONE',  ( 0.000000000000000000, 0.000000000000000000, -1.000000000000000000 ) ) ;
#259 = EDGE_LOOP ( 'NONE', ( #432, #83, #1013, #1259 ) ) ;
#260 = SURFACE_STYLE_USAGE ( .BOTH. , #1116 ) ;
#261 = VERTEX_POINT ( 'NONE', #1065 ) ;
#262 = EDGE_CURVE ( 'NONE', #418, #252, #133, .T. ) ;
#263 = DIRECTION ( 'NONE',  ( 0.000000000000000000, 0.000000000000000000, -1.000000000000000000 ) ) ;
#264 = DIRECTION ( 'NONE',  ( -0.000000000000000000, 1.000000000000000000, -0.000000000000000000 ) ) ;
#265 = ORIENTED_EDGE ( 'NONE', *, *, #562, .F. ) ;
#266 = CARTESIAN_POINT ( 'NONE',  ( -50.00000000000000000, -13.99999999999999112, -35.10000000000002274 ) ) ;
#267 = EDGE_LOOP ( 'NONE', ( #275, #433, #792, #729 ) ) ;
#268 = CARTESIAN_POINT ( 'NONE',  ( -50.00000000000000000, 12.39999999999955094, 35.10000000000063380 ) ) ;
#269 = LINE ( 'NONE', #769, #338 ) ;
#270 = AXIS2_PLACEMENT_3D ( 'NONE', #90, #824, #1209 ) ;
#271 = ORIENTED_EDGE ( 'NONE', *, *, #224, .F. ) ;
#272 = CIRCLE ( 'NONE', #662, 5.000000000000004441 ) ;
#273 = CARTESIAN_POINT ( 'NONE',  ( 50.00000000000000000, 13.20000000000000284, 35.69999999999998153 ) ) ;
#274 =( GEOMETRIC_REPRESENTATION_CONTEXT ( 3 ) GLOBAL_UNCERTAINTY_ASSIGNED_CONTEXT ( ( #937 ) ) GLOBAL_UNIT_ASSIGNED_CONTEXT ( ( #1096, #1306, #156 ) ) REPRESENTATION_CONTEXT ( 'NONE', 'WORKASPACE' ) );
#275 = ORIENTED_EDGE ( 'NONE', *, *, #481, .F. ) ;
#276 = VECTOR ( 'NONE', #489, 1000.000000000000000 ) ;
#277 = LINE ( 'NONE', #397, #276 ) ;
#278 = ADVANCED_FACE ( 'NONE', ( #472, #580 ), #779, .T. ) ;
#279 = CARTESIAN_POINT ( 'NONE',  ( 50.00000000000000000, -12.39999999999998792, -34.00000000000002842 ) ) ;
#280 = EDGE_CURVE ( 'NONE', #103, #594, #29, .T. ) ;
#281 = CARTESIAN_POINT ( 'NONE',  ( 50.00000000000000000, -12.39999999999999503, 35.10000000000002274 ) ) ;
#282 = PLANE ( 'NONE',  #297 ) ;
#283 = VERTEX_POINT ( 'NONE', #679 ) ;
#284 = DIRECTION ( 'NONE',  ( -1.000000000000000000, 0.000000000000000000, -0.000000000000000000 ) ) ;
#285 = FACE_OUTER_BOUND ( 'NONE', #823, .T. ) ;
#286 = EDGE_CURVE ( 'NONE', #1311, #652, #983, .T. ) ;
#287 = CYLINDRICAL_SURFACE ( 'NONE', #185, 0.9999999999999800160 ) ;
#288 = EDGE_LOOP ( 'NONE', ( #1307, #1219, #1075, #1038 ) ) ;
#289 = PLANE ( 'NONE',  #162 ) ;
#290 = DIRECTION ( 'NONE',  ( 0.000000000000000000, -1.000000000000000000, 0.000000000000000000 ) ) ;
#291 = DIRECTION ( 'NONE',  ( 0.000000000000000000, 0.000000000000000000, -1.000000000000000000 ) ) ;
#292 = EDGE_CURVE ( 'NONE', #138, #1136, #785, .T. ) ;
#293 = VECTOR ( 'NONE', #46, 1000.000000000000000 ) ;
#294 = ORIENTED_EDGE ( 'NONE', *, *, #1308, .F. ) ;
#295 = VECTOR ( 'NONE', #574, 1000.000000000000000 ) ;
#296 = ORIENTED_EDGE ( 'NONE', *, *, #649, .T. ) ;
#297 = AXIS2_PLACEMENT_3D ( 'NONE', #1112, #1319, #806 ) ;
#298 = CARTESIAN_POINT ( 'NONE',  ( 50.00000000000000000, -15.94999999999998508, 34.00000000000000000 ) ) ;
#299 = DIRECTION ( 'NONE',  ( 0.000000000000000000, 0.000000000000000000, 1.000000000000000000 ) ) ;
#300 = DIRECTION ( 'NONE',  ( -1.000000000000000000, -0.000000000000000000, -0.000000000000000000 ) ) ;
#301 = ORIENTED_EDGE ( 'NONE', *, *, #1283, .F. ) ;
#302 = VERTEX_POINT ( 'NONE', #39 ) ;
#303 = EDGE_CURVE ( 'NONE', #1203, #1001, #1180, .T. ) ;
#304 = DIRECTION ( 'NONE',  ( 0.000000000000000000, -1.000000000000000000, 0.000000000000000000 ) ) ;
#305 = LINE ( 'NONE', #1110, #1207 ) ;
#306 = FACE_OUTER_BOUND ( 'NONE', #1326, .T. ) ;
#307 = ORIENTED_EDGE ( 'NONE', *, *, #518, .T. ) ;
#308 = LINE ( 'NONE', #117, #236 ) ;
#309 = EDGE_CURVE ( 'NONE', #1095, #369, #269, .T. ) ;
#310 = CARTESIAN_POINT ( 'NONE',  ( -50.00000000000000000, 13.20000000000000284, -35.70000000000006679 ) ) ;
#311 = DIRECTION ( 'NONE',  ( -1.000000000000000000, -0.000000000000000000, -0.000000000000000000 ) ) ;
#312 = DIRECTION ( 'NONE',  ( 0.000000000000000000, 0.000000000000000000, -1.000000000000000000 ) ) ;
#313 = VERTEX_POINT ( 'NONE', #872 ) ;
#314 = VERTEX_POINT ( 'NONE', #1070 ) ;
#315 = CIRCLE ( 'NONE', #706, 5.000000000000000888 ) ;
#316 = LINE ( 'NONE', #21, #114 ) ;
#317 = VECTOR ( 'NONE', #254, 1000.000000000000000 ) ;
#318 = EDGE_CURVE ( 'NONE', #952, #1049, #966, .T. ) ;
#319 = DIRECTION ( 'NONE',  ( -1.000000000000000000, -0.000000000000000000, -0.000000000000000000 ) ) ;
#320 = DIRECTION ( 'NONE',  ( 0.000000000000000000, 4.037174634998162151E-13, -1.000000000000000000 ) ) ;
#321 = EDGE_CURVE ( 'NONE', #314, #955, #1278, .T. ) ;
#322 = CARTESIAN_POINT ( 'NONE',  ( 50.00000000000000000, -10.94999999999997975, 38.50000000000000711 ) ) ;
#323 = VERTEX_POINT ( 'NONE', #161 ) ;
#324 = ORIENTED_EDGE ( 'NONE', *, *, #1300, .T. ) ;
#325 = DIRECTION ( 'NONE',  ( -0.000000000000000000, -1.000000000000000000, -0.000000000000000000 ) ) ;
#326 = CARTESIAN_POINT ( 'NONE',  ( -50.00000000000000000, 12.40000000000002167, 34.00000000000000000 ) ) ;
#327 = PLANE ( 'NONE',  #229 ) ;
#328 = ORIENTED_EDGE ( 'NONE', *, *, #1316, .F. ) ;
#329 = EDGE_CURVE ( 'NONE', #152, #763, #1175, .T. ) ;
#330 = DIRECTION ( 'NONE',  ( 0.000000000000000000, 0.000000000000000000, 1.000000000000000000 ) ) ;
#331 = CARTESIAN_POINT ( 'NONE',  ( 50.00000000000000000, -13.19999999999998863, 35.70000000000000995 ) ) ;
#332 = EDGE_LOOP ( 'NONE', ( #669, #243, #607, #480 ) ) ;
#333 = FACE_OUTER_BOUND ( 'NONE', #1255, .T. ) ;
#334 = ADVANCED_FACE ( 'NONE', ( #878 ), #479, .T. ) ;
#335 = ORIENTED_EDGE ( 'NONE', *, *, #321, .F. ) ;
#336 = AXIS2_PLACEMENT_3D ( 'NONE', #454, #462, #263 ) ;
#337 = CARTESIAN_POINT ( 'NONE',  ( 50.00000000000000000, 10.95000000000000107, 34.00000000000000000 ) ) ;
#338 = VECTOR ( 'NONE', #456, 1000.000000000000000 ) ;
#339 = VECTOR ( 'NONE', #617, 1000.000000000000000 ) ;
#340 = CARTESIAN_POINT ( 'NONE',  ( -50.00000000000000000, 10.95000000000000107, 38.50000000000000711 ) ) ;
#341 = VECTOR ( 'NONE', #387, 1000.000000000000000 ) ;
#342 = VERTEX_POINT ( 'NONE', #170 ) ;
#343 = FACE_OUTER_BOUND ( 'NONE', #177, .T. ) ;
#344 = ADVANCED_FACE ( 'NONE', ( #687 ), #61, .T. ) ;
#345 = CARTESIAN_POINT ( 'NONE',  ( -50.00000000000000000, -12.39999999999998792, 34.00000000000000000 ) ) ;
#346 = DIRECTION ( 'NONE',  ( -0.000000000000000000, -0.000000000000000000, 1.000000000000000000 ) ) ;
#347 = ORIENTED_EDGE ( 'NONE', *, *, #1105, .T. ) ;
#348 = PLANE ( 'NONE',  #1187 ) ;
#349 = ORIENTED_EDGE ( 'NONE', *, *, #1275, .F. ) ;
#350 = DIRECTION ( 'NONE',  ( -1.000000000000000000, -0.000000000000000000, -0.000000000000000000 ) ) ;
#351 = ADVANCED_FACE ( 'NONE', ( #891 ), #241, .T. ) ;
#352 = DIRECTION ( 'NONE',  ( 0.000000000000000000, 0.000000000000000000, -1.000000000000000000 ) ) ;
#353 = CARTESIAN_POINT ( 'NONE',  ( -50.00000000000000000, 10.95000000000000107, -34.00000000000002842 ) ) ;
#354 = ORIENTED_EDGE ( 'NONE', *, *, #224, .T. ) ;
#355 = CARTESIAN_POINT ( 'NONE',  ( 50.00000000000000000, -10.94999999999997975, 34.00000000000000000 ) ) ;
#356 = ORIENTED_EDGE ( 'NONE', *, *, #1026, .T. ) ;
#357 = PRODUCT_CONTEXT ( 'NONE', #111, 'mechanical' ) ;
#358 = CARTESIAN_POINT ( 'NONE',  ( 50.00000000000000000, -12.39999999999998792, 34.00000000000000000 ) ) ;
#359 = DIRECTION ( 'NONE',  ( -0.000000000000000000, -1.000000000000000000, -0.000000000000000000 ) ) ;
#360 = CARTESIAN_POINT ( 'NONE',  ( -50.00000000000000000, 15.95000000000000639, -34.00000000000002842 ) ) ;
#361 = VECTOR ( 'NONE', #1162, 1000.000000000000000 ) ;
#362 = VECTOR ( 'NONE', #3, 1000.000000000000000 ) ;
#363 = ORIENTED_EDGE ( 'NONE', *, *, #1348, .F. ) ;
#364 = EDGE_CURVE ( 'NONE', #150, #808, #315, .T. ) ;
#365 = DIRECTION ( 'NONE',  ( -1.000000000000000000, -0.000000000000000000, -0.000000000000000000 ) ) ;
#366 = ORIENTED_EDGE ( 'NONE', *, *, #160, .F. ) ;
#367 = CARTESIAN_POINT ( 'NONE',  ( 50.00000000000000000, 17.50000000000001421, 35.00000000000002842 ) ) ;
#368 = CARTESIAN_POINT ( 'NONE',  ( -50.00000000000000000, -12.49999999999999112, 35.00000000000002842 ) ) ;
#369 = VERTEX_POINT ( 'NONE', #249 ) ;
#370 = CARTESIAN_POINT ( 'NONE',  ( 50.00000000000000000, -13.99999999999999112, 34.00000000000000000 ) ) ;
#371 = EDGE_CURVE ( 'NONE', #252, #875, #1080, .T. ) ;
#372 = ORIENTED_EDGE ( 'NONE', *, *, #627, .T. ) ;
#373 = DIRECTION ( 'NONE',  ( -1.000000000000000000, -0.000000000000000000, -0.000000000000000000 ) ) ;
#374 = CARTESIAN_POINT ( 'NONE',  ( 50.00000000000000000, -10.94999999999997975, 38.50000000000000711 ) ) ;
#375 = EDGE_LOOP ( 'NONE', ( #967, #944, #1030, #1341 ) ) ;
#376 = CARTESIAN_POINT ( 'NONE',  ( 50.00000000000000000, -10.94999999999997975, -34.00000000000002842 ) ) ;
#377 = EDGE_LOOP ( 'NONE', ( #633, #301, #468, #1171 ) ) ;
#378 = EDGE_CURVE ( 'NONE', #594, #101, #990, .T. ) ;
#379 = EDGE_CURVE ( 'NONE', #833, #219, #141, .T. ) ;
#380 = DIRECTION ( 'NONE',  ( 0.000000000000000000, 0.000000000000000000, -1.000000000000000000 ) ) ;
#381 = FACE_OUTER_BOUND ( 'NONE', #184, .T. ) ;
#382 = LINE ( 'NONE', #1237, #968 ) ;
#383 = VECTOR ( 'NONE', #1154, 1000.000000000000000 ) ;
#384 = DIRECTION ( 'NONE',  ( 1.000000000000000000, 0.000000000000000000, 0.000000000000000000 ) ) ;
#385 = AXIS2_PLACEMENT_3D ( 'NONE', #1022, #291, #631 ) ;
#386 = ORIENTED_EDGE ( 'NONE', *, *, #887, .T. ) ;
#387 = DIRECTION ( 'NONE',  ( -0.000000000000000000, -0.000000000000000000, -1.000000000000000000 ) ) ;
#388 = ADVANCED_FACE ( 'NONE', ( #381 ), #67, .F. ) ;
#389 = CARTESIAN_POINT ( 'NONE',  ( 50.00000000000000000, 13.20000000000000284, -35.70000000000006679 ) ) ;
#390 = DIRECTION ( 'NONE',  ( -0.000000000000000000, 0.000000000000000000, 1.000000000000000000 ) ) ;
#391 = VERTEX_POINT ( 'NONE', #1212 ) ;
#392 = CARTESIAN_POINT ( 'NONE',  ( -50.00000000000000000, 12.40000000000003055, -35.10000000000002984 ) ) ;
#393 = CARTESIAN_POINT ( 'NONE',  ( 50.00000000000000000, -15.94999999999998508, 34.00000000000000000 ) ) ;
#394 = CARTESIAN_POINT ( 'NONE',  ( 50.00000000000000000, -12.49999999999999112, -40.00000000000003553 ) ) ;
#395 = ORIENTED_EDGE ( 'NONE', *, *, #36, .F. ) ;
#396 = ORIENTED_EDGE ( 'NONE', *, *, #644, .F. ) ;
#397 = CARTESIAN_POINT ( 'NONE',  ( 50.00000000000000000, -10.94999999999997975, -34.00000000000002842 ) ) ;
#398 = ORIENTED_EDGE ( 'NONE', *, *, #895, .T. ) ;
#399 = VECTOR ( 'NONE', #1045, 1000.000000000000000 ) ;
#400 = LINE ( 'NONE', #415, #1271 ) ;
#401 = VECTOR ( 'NONE', #593, 1000.000000000000000 ) ;
#402 = ORIENTED_EDGE ( 'NONE', *, *, #429, .T. ) ;
#403 = EDGE_CURVE ( 'NONE', #459, #89, #1310, .T. ) ;
#404 = STYLED_ITEM ( 'NONE', ( #487 ), #734 ) ;
#405 = ORIENTED_EDGE ( 'NONE', *, *, #208, .T. ) ;
#406 = AXIS2_PLACEMENT_3D ( 'NONE', #506, #197, #284 ) ;
#407 = CARTESIAN_POINT ( 'NONE',  ( 50.00000000000000000, 10.95000000000000107, 38.50000000000000711 ) ) ;
#408 = CARTESIAN_POINT ( 'NONE',  ( 50.00000000000000000, 10.95000000000000107, -34.00000000000002842 ) ) ;
#409 = CARTESIAN_POINT ( 'NONE',  ( 50.00000000000000000, 14.00000000000001243, -34.00000000000002842 ) ) ;
#410 = ORIENTED_EDGE ( 'NONE', *, *, #760, .T. ) ;
#411 = EDGE_CURVE ( 'NONE', #783, #123, #587, .T. ) ;
#412 = ORIENTED_EDGE ( 'NONE', *, *, #461, .F. ) ;
#413 = LINE ( 'NONE', #622, #911 ) ;
#414 = DIRECTION ( 'NONE',  ( -1.000000000000000000, -0.000000000000000000, -0.000000000000000000 ) ) ;
#415 = CARTESIAN_POINT ( 'NONE',  ( 50.00000000000000000, 14.00000000000045652, -35.10000000000068354 ) ) ;
#416 = CARTESIAN_POINT ( 'NONE',  ( 50.00000000000000000, -13.99999999999999112, 34.00000000000000000 ) ) ;
#417 = EDGE_LOOP ( 'NONE', ( #914, #1305, #54, #230 ) ) ;
#418 = VERTEX_POINT ( 'NONE', #1290 ) ;
#419 = PRODUCT_RELATED_PRODUCT_CATEGORY ( 'part', '', ( #546 ) ) ;
#420 = CARTESIAN_POINT ( 'NONE',  ( 50.00000000000000000, 12.50000000000001066, -35.00000000000002842 ) ) ;
#421 = DIRECTION ( 'NONE',  ( -1.000000000000000000, -0.000000000000000000, -0.000000000000000000 ) ) ;
#422 = CARTESIAN_POINT ( 'NONE',  ( -50.00000000000000000, -12.49999999999999112, -40.00000000000003553 ) ) ;
#423 = LINE ( 'NONE', #345, #30 ) ;
#424 = VERTEX_POINT ( 'NONE', #1169 ) ;
#425 = EDGE_LOOP ( 'NONE', ( #1058, #1227, #372, #410 ) ) ;
#426 = AXIS2_PLACEMENT_3D ( 'NONE', #132, #1190, #753 ) ;
#427 = DIRECTION ( 'NONE',  ( -1.000000000000000000, -0.000000000000000000, -0.000000000000000000 ) ) ;
#428 = AXIS2_PLACEMENT_3D ( 'NONE', #969, #443, #244 ) ;
#429 = EDGE_CURVE ( 'NONE', #103, #781, #1087, .T. ) ;
#430 = DIRECTION ( 'NONE',  ( -0.000000000000000000, -0.000000000000000000, 1.000000000000000000 ) ) ;
#431 = FACE_OUTER_BOUND ( 'NONE', #425, .T. ) ;
#432 = ORIENTED_EDGE ( 'NONE', *, *, #371, .F. ) ;
#433 = ORIENTED_EDGE ( 'NONE', *, *, #378, .F. ) ;
#434 =( LENGTH_UNIT ( ) NAMED_UNIT ( * ) SI_UNIT ( .MILLI., .METRE. ) );
#435 = VECTOR ( 'NONE', #940, 1000.000000000000000 ) ;
#436 = FACE_OUTER_BOUND ( 'NONE', #58, .T. ) ;
#437 = EDGE_CURVE ( 'NONE', #505, #763, #1042, .T. ) ;
#438 = ORIENTED_EDGE ( 'NONE', *, *, #1329, .F. ) ;
#439 = LINE ( 'NONE', #137, #143 ) ;
#440 = DIRECTION ( 'NONE',  ( -0.000000000000000000, -0.000000000000000000, -1.000000000000000000 ) ) ;
#441 = CARTESIAN_POINT ( 'NONE',  ( -50.00000000000000000, -12.39999999999998792, 34.00000000000000000 ) ) ;
#442 = ORIENTED_EDGE ( 'NONE', *, *, #1264, .F. ) ;
#443 = DIRECTION ( 'NONE',  ( 1.000000000000000000, 0.000000000000000000, 0.000000000000000000 ) ) ;
#444 = EDGE_CURVE ( 'NONE', #219, #881, #1245, .T. ) ;
#445 = AXIS2_PLACEMENT_3D ( 'NONE', #541, #427, #1266 ) ;
#446 =( NAMED_UNIT ( * ) PLANE_ANGLE_UNIT ( ) SI_UNIT ( $, .RADIAN. ) );
#447 = VECTOR ( 'NONE', #778, 1000.000000000000000 ) ;
#448 = CARTESIAN_POINT ( 'NONE',  ( 50.00000000000000000, 10.95000000000000107, -34.00000000000002842 ) ) ;
#449 = CARTESIAN_POINT ( 'NONE',  ( 50.00000000000000000, -12.49999999999999112, -35.00000000000002842 ) ) ;
#450 = VECTOR ( 'NONE', #256, 1000.000000000000000 ) ;
#451 = VERTEX_POINT ( 'NONE', #464 ) ;
#452 = CARTESIAN_POINT ( 'NONE',  ( 50.00000000000000000, -12.39999999999999503, 35.10000000000002274 ) ) ;
#453 = EDGE_CURVE ( 'NONE', #313, #601, #140, .T. ) ;
#454 = CARTESIAN_POINT ( 'NONE',  ( 50.00000000000000000, 12.50000000000001066, -35.00000000000002842 ) ) ;
#455 = CARTESIAN_POINT ( 'NONE',  ( 50.00000000000000000, 15.95000000000000639, 34.00000000000000000 ) ) ;
#456 = DIRECTION ( 'NONE',  ( -0.000000000000000000, -4.037174634998161646E-13, 1.000000000000000000 ) ) ;
#457 = ORIENTED_EDGE ( 'NONE', *, *, #17, .F. ) ;
#458 = DIRECTION ( 'NONE',  ( -1.000000000000000000, 0.000000000000000000, -0.000000000000000000 ) ) ;
#459 = VERTEX_POINT ( 'NONE', #1277 ) ;
#460 =( NAMED_UNIT ( * ) SI_UNIT ( $, .STERADIAN. ) SOLID_ANGLE_UNIT ( ) );
#461 = EDGE_CURVE ( 'NONE', #1001, #1049, #107, .T. ) ;
#462 = DIRECTION ( 'NONE',  ( 1.000000000000000000, 0.000000000000000000, 0.000000000000000000 ) ) ;
#463 = EDGE_CURVE ( 'NONE', #486, #103, #877, .T. ) ;
#464 = CARTESIAN_POINT ( 'NONE',  ( -50.00000000000000000, -15.94999999999998508, 34.00000000000000000 ) ) ;
#465 = DIRECTION ( 'NONE',  ( -0.000000000000000000, 1.000000000000000000, -0.000000000000000000 ) ) ;
#466 = ORIENTED_EDGE ( 'NONE', *, *, #821, .F. ) ;
#467 = DIRECTION ( 'NONE',  ( 0.000000000000000000, 0.000000000000000000, 1.000000000000000000 ) ) ;
#468 = ORIENTED_EDGE ( 'NONE', *, *, #1103, .T. ) ;
#469 = VECTOR ( 'NONE', #1318, 1000.000000000000000 ) ;
#470 = FACE_OUTER_BOUND ( 'NONE', #196, .T. ) ;
#471 = VECTOR ( 'NONE', #798, 1000.000000000000000 ) ;
#472 = FACE_OUTER_BOUND ( 'NONE', #237, .T. ) ;
#473 = VECTOR ( 'NONE', #920, 1000.000000000000000 ) ;
#474 = CIRCLE ( 'NONE', #998, 0.9999999999999870104 ) ;
#475 = ORIENTED_EDGE ( 'NONE', *, *, #44, .F. ) ;
#476 = FACE_OUTER_BOUND ( 'NONE', #1199, .T. ) ;
#477 = ORIENTED_EDGE ( 'NONE', *, *, #989, .T. ) ;
#478 = LINE ( 'NONE', #1196, #683 ) ;
#479 = PLANE ( 'NONE',  #1016 ) ;
#480 = ORIENTED_EDGE ( 'NONE', *, *, #901, .T. ) ;
#481 = EDGE_CURVE ( 'NONE', #101, #155, #423, .T. ) ;
#482 = DIRECTION ( 'NONE',  ( -1.000000000000000000, -0.000000000000000000, -0.000000000000000000 ) ) ;
#483 = ORIENTED_EDGE ( 'NONE', *, *, #1217, .T. ) ;
#484 = FACE_OUTER_BOUND ( 'NONE', #1302, .T. ) ;
#485 = DIRECTION ( 'NONE',  ( -1.000000000000000000, -0.000000000000000000, -0.000000000000000000 ) ) ;
#486 = VERTEX_POINT ( 'NONE', #832 ) ;
#487 = PRESENTATION_STYLE_ASSIGNMENT (( #260 ) ) ;
#488 = ORIENTED_EDGE ( 'NONE', *, *, #1026, .F. ) ;
#489 = DIRECTION ( 'NONE',  ( -0.000000000000000000, 1.000000000000000000, -0.000000000000000000 ) ) ;
#490 = DIRECTION ( 'NONE',  ( 0.000000000000000000, 0.000000000000000000, -1.000000000000000000 ) ) ;
#491 = AXIS2_PLACEMENT_3D ( 'NONE', #1174, #650, #312 ) ;
#492 = CARTESIAN_POINT ( 'NONE',  ( 50.00000000000000000, -13.99999999999999112, -34.00000000000002842 ) ) ;
#493 = VECTOR ( 'NONE', #365, 1000.000000000000000 ) ;
#494 = ORIENTED_EDGE ( 'NONE', *, *, #1211, .T. ) ;
#495 = ADVANCED_FACE ( 'NONE', ( #761 ), #210, .T. ) ;
#496 = LINE ( 'NONE', #603, #98 ) ;
#497 = LINE ( 'NONE', #604, #401 ) ;
#498 = FACE_OUTER_BOUND ( 'NONE', #640, .T. ) ;
#499 = ORIENTED_EDGE ( 'NONE', *, *, #437, .T. ) ;
#500 = ORIENTED_EDGE ( 'NONE', *, *, #989, .F. ) ;
#501 = LINE ( 'NONE', #1317, #1037 ) ;
#502 = DIRECTION ( 'NONE',  ( -1.000000000000000000, -0.000000000000000000, -0.000000000000000000 ) ) ;
#503 = FACE_OUTER_BOUND ( 'NONE', #1262, .T. ) ;
#504 = EDGE_LOOP ( 'NONE', ( #40, #600, #856, #526 ) ) ;
#505 = VERTEX_POINT ( 'NONE', #1069 ) ;
#506 = CARTESIAN_POINT ( 'NONE',  ( 50.00000000000000000, 12.50000000000001066, 40.00000000000003553 ) ) ;
#507 = LINE ( 'NONE', #537, #1099 ) ;
#508 = EDGE_CURVE ( 'NONE', #783, #252, #965, .T. ) ;
#509 = AXIS2_PLACEMENT_3D ( 'NONE', #1127, #72, #192 ) ;
#510 = LINE ( 'NONE', #409, #473 ) ;
#511 = AXIS2_PLACEMENT_3D ( 'NONE', #898, #693, #1126 ) ;
#512 = ORIENTED_EDGE ( 'NONE', *, *, #1050, .T. ) ;
#513 = AXIS2_PLACEMENT_3D ( 'NONE', #56, #888, #696 ) ;
#514 = ORIENTED_EDGE ( 'NONE', *, *, #403, .T. ) ;
#515 = CARTESIAN_POINT ( 'NONE',  ( 50.00000000000000000, -17.49999999999998934, -35.00000000000002842 ) ) ;
#516 = FACE_OUTER_BOUND ( 'NONE', #561, .T. ) ;
#517 = CARTESIAN_POINT ( 'NONE',  ( 50.00000000000000000, -13.99999999999999112, 34.00000000000000000 ) ) ;
#518 = EDGE_CURVE ( 'NONE', #822, #212, #1074, .T. ) ;
#519 = DIRECTION ( 'NONE',  ( -0.000000000000000000, 1.000000000000000000, 0.000000000000000000 ) ) ;
#520 = VERTEX_POINT ( 'NONE', #148 ) ;
#521 = ADVANCED_FACE ( 'NONE', ( #564 ), #557, .T. ) ;
#522 = ORIENTED_EDGE ( 'NONE', *, *, #364, .T. ) ;
#523 = LINE ( 'NONE', #1040, #361 ) ;
#524 = DIRECTION ( 'NONE',  ( 1.000000000000000000, 0.000000000000000000, 0.000000000000000000 ) ) ;
#525 = DIRECTION ( 'NONE',  ( -0.000000000000000000, 1.000000000000000000, -0.000000000000000000 ) ) ;
#526 = ORIENTED_EDGE ( 'NONE', *, *, #811, .T. ) ;
#527 = EDGE_CURVE ( 'NONE', #323, #919, #9, .T. ) ;
#528 = DIRECTION ( 'NONE',  ( -1.000000000000000000, -0.000000000000000000, -0.000000000000000000 ) ) ;
#529 = LINE ( 'NONE', #1046, #1333 ) ;
#530 = CARTESIAN_POINT ( 'NONE',  ( 50.00000000000000000, 14.00000000000000711, 35.10000000000002274 ) ) ;
#531 = ORIENTED_EDGE ( 'NONE', *, *, #1000, .F. ) ;
#532 = AXIS2_PLACEMENT_3D ( 'NONE', #408, #290, #596 ) ;
#533 = ORIENTED_EDGE ( 'NONE', *, *, #770, .T. ) ;
#534 = AXIS2_PLACEMENT_3D ( 'NONE', #449, #865, #1088 ) ;
#535 = DIRECTION ( 'NONE',  ( -1.000000000000000000, -0.000000000000000000, -0.000000000000000000 ) ) ;
#536 = AXIS2_PLACEMENT_3D ( 'NONE', #370, #894, #690 ) ;
#537 = CARTESIAN_POINT ( 'NONE',  ( -50.00000000000000000, -15.94999999999998508, 34.00000000000000000 ) ) ;
#538 = VERTEX_POINT ( 'NONE', #448 ) ;
#539 = FACE_OUTER_BOUND ( 'NONE', #267, .T. ) ;
#540 = ORIENTED_EDGE ( 'NONE', *, *, #1010, .F. ) ;
#541 = CARTESIAN_POINT ( 'NONE',  ( 50.00000000000000000, -13.19999999999998863, 35.70000000000000995 ) ) ;
#542 = DIRECTION ( 'NONE',  ( 0.000000000000000000, 0.000000000000000000, -1.000000000000000000 ) ) ;
#543 = EDGE_CURVE ( 'NONE', #1055, #781, #257, .T. ) ;
#544 = ORIENTED_EDGE ( 'NONE', *, *, #609, .F. ) ;
#545 = LINE ( 'NONE', #1184, #317 ) ;
#546 = PRODUCT ( 'SC-ZT80X35-K170', 'SC-ZT80X35-K170', '', ( #357 ) ) ;
#547 = ORIENTED_EDGE ( 'NONE', *, *, #379, .F. ) ;
#548 = DIRECTION ( 'NONE',  ( 1.000000000000000000, 0.000000000000000000, 0.000000000000000000 ) ) ;
#549 = CARTESIAN_POINT ( 'NONE',  ( -50.00000000000000000, -10.94999999999997975, -34.00000000000002842 ) ) ;
#550 = ORIENTED_EDGE ( 'NONE', *, *, #1158, .F. ) ;
#551 = EDGE_CURVE ( 'NONE', #342, #391, #625, .T. ) ;
#552 = DIRECTION ( 'NONE',  ( 0.000000000000000000, 1.000000000000000000, 0.000000000000000000 ) ) ;
#553 = EDGE_LOOP ( 'NONE', ( #189, #569, #727, #5 ) ) ;
#554 = AXIS2_PLACEMENT_3D ( 'NONE', #1213, #73, #490 ) ;
#555 = DIRECTION ( 'NONE',  ( 0.000000000000000000, 0.000000000000000000, -1.000000000000000000 ) ) ;
#556 = COLOUR_RGB ( '',0.8980392156862745390, 0.8980392156862745390, 0.8980392156862745390 ) ;
#557 = PLANE ( 'NONE',  #426 ) ;
#558 = CARTESIAN_POINT ( 'NONE',  ( 50.00000000000000000, 12.40000000000002167, 34.00000000000000000 ) ) ;
#559 = ORIENTED_EDGE ( 'NONE', *, *, #1339, .T. ) ;
#560 = CARTESIAN_POINT ( 'NONE',  ( 50.00000000000000000, 12.40000000000002167, 34.00000000000000000 ) ) ;
#561 = EDGE_LOOP ( 'NONE', ( #1215, #1198, #682, #466, #172, #531, #1029, #1145 ) ) ;
#562 = EDGE_CURVE ( 'NONE', #138, #459, #1122, .T. ) ;
#563 = PLANE ( 'NONE',  #1336 ) ;
#564 = FACE_OUTER_BOUND ( 'NONE', #1182, .T. ) ;
#565 = CARTESIAN_POINT ( 'NONE',  ( 50.00000000000000000, 12.50000000000001066, 35.00000000000002842 ) ) ;
#566 =( GEOMETRIC_REPRESENTATION_CONTEXT ( 3 ) GLOBAL_UNCERTAINTY_ASSIGNED_CONTEXT ( ( #168 ) ) GLOBAL_UNIT_ASSIGNED_CONTEXT ( ( #434, #642, #964 ) ) REPRESENTATION_CONTEXT ( 'NONE', 'WORKASPACE' ) );
#567 = VERTEX_POINT ( 'NONE', #1179 ) ;
#568 = CARTESIAN_POINT ( 'NONE',  ( 50.00000000000000000, 14.00000000000001243, 35.10000000000002274 ) ) ;
#569 = ORIENTED_EDGE ( 'NONE', *, *, #717, .F. ) ;
#570 = EDGE_CURVE ( 'NONE', #952, #691, #248, .T. ) ;
#571 = DIRECTION ( 'NONE',  ( 0.000000000000000000, 0.000000000000000000, -1.000000000000000000 ) ) ;
#572 = CARTESIAN_POINT ( 'NONE',  ( -50.00000000000000000, -10.94999999999997975, -38.50000000000009237 ) ) ;
#573 = ORIENTED_EDGE ( 'NONE', *, *, #444, .F. ) ;
#574 = DIRECTION ( 'NONE',  ( -0.000000000000000000, -0.000000000000000000, -1.000000000000000000 ) ) ;
#575 = ORIENTED_EDGE ( 'NONE', *, *, #901, .F. ) ;
#576 = AXIS2_PLACEMENT_3D ( 'NONE', #420, #932, #330 ) ;
#577 = LINE ( 'NONE', #1303, #643 ) ;
#578 = ADVANCED_FACE ( 'NONE', ( #935 ), #725, .T. ) ;
#579 = AXIS2_PLACEMENT_3D ( 'NONE', #331, #645, #128 ) ;
#580 = FACE_BOUND ( 'NONE', #50, .T. ) ;
#581 = CIRCLE ( 'NONE', #862, 1.000000000000014655 ) ;
#582 = VECTOR ( 'NONE', #1114, 1000.000000000000000 ) ;
#583 = ORIENTED_EDGE ( 'NONE', *, *, #191, .T. ) ;
#584 = FILL_AREA_STYLE ('',( #782 ) ) ;
#585 = EDGE_LOOP ( 'NONE', ( #807, #702, #588, #115 ) ) ;
#586 = DIRECTION ( 'NONE',  ( -0.000000000000000000, -0.000000000000000000, 1.000000000000000000 ) ) ;
#587 = LINE ( 'NONE', #1005, #119 ) ;
#588 = ORIENTED_EDGE ( 'NONE', *, *, #570, .T. ) ;
#589 = EDGE_CURVE ( 'NONE', #889, #833, #985, .T. ) ;
#590 = CARTESIAN_POINT ( 'NONE',  ( -50.00000000000000000, -10.94999999999997975, 38.50000000000000711 ) ) ;
#591 = EDGE_LOOP ( 'NONE', ( #748, #550, #544, #1220 ) ) ;
#592 = PLANE ( 'NONE',  #509 ) ;
#593 = DIRECTION ( 'NONE',  ( -1.000000000000000000, -0.000000000000000000, -0.000000000000000000 ) ) ;
#594 = VERTEX_POINT ( 'NONE', #151 ) ;
#595 = DIRECTION ( 'NONE',  ( -1.000000000000000000, -0.000000000000000000, -0.000000000000000000 ) ) ;
#596 = DIRECTION ( 'NONE',  ( 0.000000000000000000, -0.000000000000000000, -1.000000000000000000 ) ) ;
#597 = VECTOR ( 'NONE', #234, 1000.000000000000000 ) ;
#598 = DIRECTION ( 'NONE',  ( -0.000000000000000000, 0.000000000000000000, 1.000000000000000000 ) ) ;
#599 = VECTOR ( 'NONE', #181, 1000.000000000000000 ) ;
#600 = ORIENTED_EDGE ( 'NONE', *, *, #127, .F. ) ;
#601 = VERTEX_POINT ( 'NONE', #764 ) ;
#602 = EDGE_CURVE ( 'NONE', #123, #261, #1073, .T. ) ;
#603 = CARTESIAN_POINT ( 'NONE',  ( 50.00000000000000000, 12.50000000000001066, 40.00000000000003553 ) ) ;
#604 = CARTESIAN_POINT ( 'NONE',  ( 50.00000000000000000, -14.00000000000043521, 35.10000000000063380 ) ) ;
#605 = PLANE ( 'NONE',  #385 ) ;
#606 = VERTEX_POINT ( 'NONE', #1067 ) ;
#607 = ORIENTED_EDGE ( 'NONE', *, *, #309, .T. ) ;
#608 = LINE ( 'NONE', #407, #929 ) ;
#609 = EDGE_CURVE ( 'NONE', #828, #19, #439, .T. ) ;
#610 = DIRECTION ( 'NONE',  ( 0.000000000000000000, 0.000000000000000000, -1.000000000000000000 ) ) ;
#611 = CARTESIAN_POINT ( 'NONE',  ( 50.00000000000000000, -15.94999999999998508, 34.00000000000000000 ) ) ;
#612 = EDGE_LOOP ( 'NONE', ( #412, #1164, #477, #1279 ) ) ;
#613 = CARTESIAN_POINT ( 'NONE',  ( -50.00000000000000000, -12.39999999999952252, -35.10000000000068354 ) ) ;
#614 = EDGE_CURVE ( 'NONE', #691, #1095, #57, .T. ) ;
#615 = DIRECTION ( 'NONE',  ( 0.000000000000000000, 0.000000000000000000, 1.000000000000000000 ) ) ;
#616 = VECTOR ( 'NONE', #247, 1000.000000000000000 ) ;
#617 = DIRECTION ( 'NONE',  ( 0.000000000000000000, 1.000000000000000000, 0.000000000000000000 ) ) ;
#618 = ORIENTED_EDGE ( 'NONE', *, *, #851, .T. ) ;
#619 = VECTOR ( 'NONE', #195, 1000.000000000000000 ) ;
#620 = ORIENTED_EDGE ( 'NONE', *, *, #1050, .F. ) ;
#621 = VECTOR ( 'NONE', #1078, 1000.000000000000000 ) ;
#622 = CARTESIAN_POINT ( 'NONE',  ( 50.00000000000000000, 10.95000000000000107, 34.00000000000000000 ) ) ;
#623 = LINE ( 'NONE', #743, #860 ) ;
#624 = CARTESIAN_POINT ( 'NONE',  ( 50.00000000000000000, 17.50000000000001421, 35.00000000000002842 ) ) ;
#625 = LINE ( 'NONE', #455, #641 ) ;
#626 = VERTEX_POINT ( 'NONE', #956 ) ;
#627 = EDGE_CURVE ( 'NONE', #82, #886, #1082, .T. ) ;
#628 = EDGE_LOOP ( 'NONE', ( #618, #744, #654, #182, #1146, #794, #483, #405, #848, #765, #786, #75, #1061, #879, #6, #108, #1331, #1009, #636, #971, #94, #1265, #697, #116, #840, #203, #700, #1024, #866, #757 ) ) ;
#629 = FACE_OUTER_BOUND ( 'NONE', #1130, .T. ) ;
#630 = DIRECTION ( 'NONE',  ( 0.000000000000000000, 4.226417196013700284E-13, -1.000000000000000000 ) ) ;
#631 = DIRECTION ( 'NONE',  ( -1.000000000000000000, 0.000000000000000000, -0.000000000000000000 ) ) ;
#632 = ORIENTED_EDGE ( 'NONE', *, *, #91, .F. ) ;
#633 = ORIENTED_EDGE ( 'NONE', *, *, #262, .F. ) ;
#634 = DIRECTION ( 'NONE',  ( 0.000000000000000000, 0.000000000000000000, 1.000000000000000000 ) ) ;
#635 = DIRECTION ( 'NONE',  ( 0.000000000000000000, 1.000000000000000000, 0.000000000000000000 ) ) ;
#636 = ORIENTED_EDGE ( 'NONE', *, *, #160, .T. ) ;
#637 = AXIS2_PLACEMENT_3D ( 'NONE', #194, #1012, #610 ) ;
#638 = DIRECTION ( 'NONE',  ( -1.000000000000000000, -0.000000000000000000, -0.000000000000000000 ) ) ;
#639 = AXIS2_PLACEMENT_3D ( 'NONE', #4, #519, #943 ) ;
#640 = EDGE_LOOP ( 'NONE', ( #163, #335, #356, #533 ) ) ;
#641 = VECTOR ( 'NONE', #240, 1000.000000000000000 ) ;
#642 =( NAMED_UNIT ( * ) PLANE_ANGLE_UNIT ( ) SI_UNIT ( $, .RADIAN. ) );
#643 = VECTOR ( 'NONE', #586, 1000.000000000000000 ) ;
#644 = EDGE_CURVE ( 'NONE', #886, #801, #972, .T. ) ;
#645 = DIRECTION ( 'NONE',  ( 1.000000000000000000, 0.000000000000000000, 0.000000000000000000 ) ) ;
#646 = ORIENTED_EDGE ( 'NONE', *, *, #614, .F. ) ;
#647 = CARTESIAN_POINT ( 'NONE',  ( 50.00000000000000000, -12.39999999999998792, 34.00000000000000000 ) ) ;
#648 = DIRECTION ( 'NONE',  ( 1.000000000000000000, 0.000000000000000000, 0.000000000000000000 ) ) ;
#649 = EDGE_CURVE ( 'NONE', #23, #567, #661, .T. ) ;
#650 = DIRECTION ( 'NONE',  ( 1.000000000000000000, 0.000000000000000000, 0.000000000000000000 ) ) ;
#651 = DIRECTION ( 'NONE',  ( 0.000000000000000000, 0.000000000000000000, -1.000000000000000000 ) ) ;
#652 = VERTEX_POINT ( 'NONE', #231 ) ;
#653 = CARTESIAN_POINT ( 'NONE',  ( 50.00000000000000000, 10.95000000000000107, -38.50000000000009237 ) ) ;
#654 = ORIENTED_EDGE ( 'NONE', *, *, #938, .T. ) ;
#655 = DIRECTION ( 'NONE',  ( -0.000000000000000000, 1.000000000000000000, -0.000000000000000000 ) ) ;
#656 = DIRECTION ( 'NONE',  ( -0.000000000000000000, -1.000000000000000000, -0.000000000000000000 ) ) ;
#657 = CARTESIAN_POINT ( 'NONE',  ( 50.00000000000000000, -10.94999999999997975, 34.00000000000000000 ) ) ;
#658 = EDGE_CURVE ( 'NONE', #801, #889, #165, .T. ) ;
#659 = EDGE_LOOP ( 'NONE', ( #853, #575, #190, #499 ) ) ;
#660 = EDGE_CURVE ( 'NONE', #261, #1203, #667, .T. ) ;
#661 = LINE ( 'NONE', #452, #728 ) ;
#662 = AXIS2_PLACEMENT_3D ( 'NONE', #849, #1261, #754 ) ;
#663 = CARTESIAN_POINT ( 'NONE',  ( 50.00000000000000000, -13.99999999999999112, -34.00000000000002842 ) ) ;
#664 = CARTESIAN_POINT ( 'NONE',  ( 50.00000000000000000, 12.40000000000002167, -35.10000000000002274 ) ) ;
#665 = DIRECTION ( 'NONE',  ( -1.000000000000000000, -0.000000000000000000, -0.000000000000000000 ) ) ;
#666 = ORIENTED_EDGE ( 'NONE', *, *, #233, .T. ) ;
#667 = LINE ( 'NONE', #41, #493 ) ;
#668 = EDGE_CURVE ( 'NONE', #1136, #1295, #581, .T. ) ;
#669 = ORIENTED_EDGE ( 'NONE', *, *, #8, .F. ) ;
#670 = FACE_OUTER_BOUND ( 'NONE', #504, .T. ) ;
#671 = CARTESIAN_POINT ( 'NONE',  ( -50.00000000000000000, -10.94999999999997975, 38.50000000000000711 ) ) ;
#672 = DIRECTION ( 'NONE',  ( -0.000000000000000000, -0.000000000000000000, -1.000000000000000000 ) ) ;
#673 = MECHANICAL_DESIGN_GEOMETRIC_PRESENTATION_REPRESENTATION (  '', ( #1085 ), #716 ) ;
#674 = EDGE_LOOP ( 'NONE', ( #1240, #442, #1125, #771 ) ) ;
#675 = LINE ( 'NONE', #266, #295 ) ;
#676 = ORIENTED_EDGE ( 'NONE', *, *, #1283, .T. ) ;
#677 = EDGE_CURVE ( 'NONE', #538, #1001, #858, .T. ) ;
#678 = PLANE ( 'NONE',  #1210 ) ;
#679 = CARTESIAN_POINT ( 'NONE',  ( -50.00000000000000000, 13.20000000000000284, 36.69999999999996021 ) ) ;
#680 = ORIENTED_EDGE ( 'NONE', *, *, #286, .F. ) ;
#681 = SURFACE_STYLE_FILL_AREA ( #584 ) ;
#682 = ORIENTED_EDGE ( 'NONE', *, *, #1132, .F. ) ;
#683 = VECTOR ( 'NONE', #239, 1000.000000000000000 ) ;
#684 = CARTESIAN_POINT ( 'NONE',  ( -50.00000000000000000, 12.40000000000002167, -34.00000000000002842 ) ) ;
#685 = AXIS2_PLACEMENT_3D ( 'NONE', #565, #1291, #1202 ) ;
#686 = ADVANCED_FACE ( 'NONE', ( #539 ), #867, .T. ) ;
#687 = FACE_OUTER_BOUND ( 'NONE', #674, .T. ) ;
#688 = CIRCLE ( 'NONE', #336, 5.000000000000004441 ) ;
#689 = EDGE_LOOP ( 'NONE', ( #939, #986, #1206, #1048 ) ) ;
#690 = DIRECTION ( 'NONE',  ( 0.000000000000000000, -4.037174634998263630E-13, 1.000000000000000000 ) ) ;
#691 = VERTEX_POINT ( 'NONE', #1056 ) ;
#692 = PLANE ( 'NONE',  #406 ) ;
#693 = DIRECTION ( 'NONE',  ( -0.000000000000000000, 1.000000000000000000, 0.000000000000000000 ) ) ;
#694 = ADVANCED_FACE ( 'NONE', ( #333 ), #962, .F. ) ;
#695 = DIRECTION ( 'NONE',  ( 0.000000000000000000, 0.000000000000000000, -1.000000000000000000 ) ) ;
#696 = DIRECTION ( 'NONE',  ( 1.000000000000000000, 0.000000000000000000, 0.000000000000000000 ) ) ;
#697 = ORIENTED_EDGE ( 'NONE', *, *, #1316, .T. ) ;
#698 = PRODUCT_DEFINITION_CONTEXT ( 'detailed design', #1267, 'design' ) ;
#699 = DIRECTION ( 'NONE',  ( -0.000000000000000000, -1.000000000000000000, -0.000000000000000000 ) ) ;
#700 = ORIENTED_EDGE ( 'NONE', *, *, #78, .T. ) ;
#701 = FACE_OUTER_BOUND ( 'NONE', #612, .T. ) ;
#702 = ORIENTED_EDGE ( 'NONE', *, *, #318, .F. ) ;
#703 = EDGE_CURVE ( 'NONE', #342, #82, #1280, .T. ) ;
#704 = DIRECTION ( 'NONE',  ( 0.000000000000000000, -0.000000000000000000, 1.000000000000000000 ) ) ;
#705 = CARTESIAN_POINT ( 'NONE',  ( -50.00000000000000000, 17.50000000000001421, -35.00000000000002842 ) ) ;
#706 = AXIS2_PLACEMENT_3D ( 'NONE', #368, #154, #258 ) ;
#707 = CYLINDRICAL_SURFACE ( 'NONE', #1296, 0.9999999999999800160 ) ;
#708 = VECTOR ( 'NONE', #793, 1000.000000000000000 ) ;
#709 = ORIENTED_EDGE ( 'NONE', *, *, #411, .F. ) ;
#710 = ADVANCED_FACE ( 'NONE', ( #343 ), #348, .T. ) ;
#711 = ORIENTED_EDGE ( 'NONE', *, *, #543, .F. ) ;
#712 = DIRECTION ( 'NONE',  ( -0.000000000000000000, -4.226417196013700284E-13, 1.000000000000000000 ) ) ;
#713 = CARTESIAN_POINT ( 'NONE',  ( 50.00000000000000000, -10.94999999999997975, 38.50000000000000711 ) ) ;
#714 = CARTESIAN_POINT ( 'NONE',  ( -50.00000000000000000, 10.95000000000000107, -38.50000000000009237 ) ) ;
#715 = EDGE_LOOP ( 'NONE', ( #294, #354, #922, #957 ) ) ;
#716 =( GEOMETRIC_REPRESENTATION_CONTEXT ( 3 ) GLOBAL_UNCERTAINTY_ASSIGNED_CONTEXT ( ( #987 ) ) GLOBAL_UNIT_ASSIGNED_CONTEXT ( ( #1195, #446, #460 ) ) REPRESENTATION_CONTEXT ( 'NONE', 'WORKASPACE' ) );
#717 = EDGE_CURVE ( 'NONE', #827, #451, #545, .T. ) ;
#718 = LINE ( 'NONE', #923, #752 ) ;
#719 = CYLINDRICAL_SURFACE ( 'NONE', #995, 1.000000000000000888 ) ;
#720 = CARTESIAN_POINT ( 'NONE',  ( 50.00000000000000000, 12.39999999999955094, 35.10000000000063380 ) ) ;
#721 = ORIENTED_EDGE ( 'NONE', *, *, #551, .F. ) ;
#722 = EDGE_CURVE ( 'NONE', #1186, #155, #880, .T. ) ;
#723 = CARTESIAN_POINT ( 'NONE',  ( 50.00000000000000000, -12.39999999999998792, -34.00000000000002842 ) ) ;
#724 = LINE ( 'NONE', #624, #619 ) ;
#725 = PLANE ( 'NONE',  #1017 ) ;
#726 = CIRCLE ( 'NONE', #797, 1.000000000000000888 ) ;
#727 = ORIENTED_EDGE ( 'NONE', *, *, #36, .T. ) ;
#728 = VECTOR ( 'NONE', #49, 1000.000000000000000 ) ;
#729 = ORIENTED_EDGE ( 'NONE', *, *, #722, .T. ) ;
#730 = FACE_OUTER_BOUND ( 'NONE', #417, .T. ) ;
#731 = CARTESIAN_POINT ( 'NONE',  ( -50.00000000000000000, 17.50000000000001421, -35.00000000000002842 ) ) ;
#732 = CARTESIAN_POINT ( 'NONE',  ( 50.00000000000000000, 12.40000000000002167, 34.00000000000000000 ) ) ;
#733 = ORIENTED_EDGE ( 'NONE', *, *, #233, .F. ) ;
#734 = MANIFOLD_SOLID_BREP ( '凸台-拉伸1', #202 ) ;
#735 = ORIENTED_EDGE ( 'NONE', *, *, #303, .F. ) ;
#736 = VECTOR ( 'NONE', #634, 1000.000000000000000 ) ;
#737 = CYLINDRICAL_SURFACE ( 'NONE', #576, 5.000000000000004441 ) ;
#738 = LINE ( 'NONE', #2, #383 ) ;
#739 = DIRECTION ( 'NONE',  ( -1.000000000000000000, 0.000000000000000000, -0.000000000000000000 ) ) ;
#740 = ORIENTED_EDGE ( 'NONE', *, *, #750, .F. ) ;
#741 = ADVANCED_FACE ( 'NONE', ( #81 ), #787, .T. ) ;
#742 = DIRECTION ( 'NONE',  ( -1.000000000000000000, -0.000000000000000000, -0.000000000000000000 ) ) ;
#743 = CARTESIAN_POINT ( 'NONE',  ( 50.00000000000000000, -12.39999999999952252, -35.10000000000068354 ) ) ;
#744 = ORIENTED_EDGE ( 'NONE', *, *, #481, .T. ) ;
#745 = AXIS2_PLACEMENT_3D ( 'NONE', #1137, #7, #15 ) ;
#746 = DIRECTION ( 'NONE',  ( 0.000000000000000000, 1.000000000000000000, 0.000000000000000000 ) ) ;
#747 = AXIS2_PLACEMENT_3D ( 'NONE', #1052, #121, #16 ) ;
#748 = ORIENTED_EDGE ( 'NONE', *, *, #821, .T. ) ;
#749 = AXIS2_PLACEMENT_3D ( 'NONE', #756, #978, #124 ) ;
#750 = EDGE_CURVE ( 'NONE', #606, #1136, #675, .T. ) ;
#751 = CARTESIAN_POINT ( 'NONE',  ( 50.00000000000000000, 10.95000000000000107, 34.00000000000000000 ) ) ;
#752 = VECTOR ( 'NONE', #712, 1000.000000000000000 ) ;
#753 = DIRECTION ( 'NONE',  ( 0.000000000000000000, -0.000000000000000000, 1.000000000000000000 ) ) ;
#754 = DIRECTION ( 'NONE',  ( 0.000000000000000000, 0.000000000000000000, -1.000000000000000000 ) ) ;
#755 = ORIENTED_EDGE ( 'NONE', *, *, #1211, .F. ) ;
#756 = CARTESIAN_POINT ( 'NONE',  ( 50.00000000000000000, 13.20000000000000284, 35.69999999999998153 ) ) ;
#757 = ORIENTED_EDGE ( 'NONE', *, *, #543, .T. ) ;
#758 = APPLICATION_PROTOCOL_DEFINITION ( 'draft international standard', 'automotive_design', 1998, #111 ) ;
#759 = ADVANCED_FACE ( 'NONE', ( #1312 ), #287, .F. ) ;
#760 = EDGE_CURVE ( 'NONE', #886, #626, #1107, .T. ) ;
#761 = FACE_OUTER_BOUND ( 'NONE', #553, .T. ) ;
#762 = DIRECTION ( 'NONE',  ( 0.000000000000000000, 0.000000000000000000, 1.000000000000000000 ) ) ;
#763 = VERTEX_POINT ( 'NONE', #992 ) ;
#764 = CARTESIAN_POINT ( 'NONE',  ( 50.00000000000000000, -13.99999999999999112, 34.00000000000000000 ) ) ;
#765 = ORIENTED_EDGE ( 'NONE', *, *, #750, .T. ) ;
#766 = CARTESIAN_POINT ( 'NONE',  ( 0.000000000000000000, 0.000000000000000000, 0.000000000000000000 ) ) ;
#767 = CARTESIAN_POINT ( 'NONE',  ( 50.00000000000000000, 12.40000000000002167, -34.00000000000002842 ) ) ;
#768 = DIRECTION ( 'NONE',  ( -0.000000000000000000, -1.000000000000000000, -0.000000000000000000 ) ) ;
#769 = CARTESIAN_POINT ( 'NONE',  ( 50.00000000000000000, 14.00000000000001243, -34.00000000000002842 ) ) ;
#770 = EDGE_CURVE ( 'NONE', #1346, #606, #173, .T. ) ;
#771 = ORIENTED_EDGE ( 'NONE', *, *, #1275, .T. ) ;
#772 = CARTESIAN_POINT ( 'NONE',  ( 50.00000000000000000, 10.95000000000000107, -34.00000000000002842 ) ) ;
#773 = ORIENTED_EDGE ( 'NONE', *, *, #403, .F. ) ;
#774 = SHAPE_DEFINITION_REPRESENTATION ( #780, #918 ) ;
#775 = VECTOR ( 'NONE', #430, 1000.000000000000000 ) ;
#776 = LINE ( 'NONE', #1189, #450 ) ;
#777 = VECTOR ( 'NONE', #482, 1000.000000000000000 ) ;
#778 = DIRECTION ( 'NONE',  ( -1.000000000000000000, -0.000000000000000000, -0.000000000000000000 ) ) ;
#779 = PLANE ( 'NONE',  #685 ) ;
#780 = PRODUCT_DEFINITION_SHAPE ( 'NONE', 'NONE',  #35 ) ;
#781 = VERTEX_POINT ( 'NONE', #590 ) ;
#782 = FILL_AREA_STYLE_COLOUR ( '', #556 ) ;
#783 = VERTEX_POINT ( 'NONE', #376 ) ;
#784 = CARTESIAN_POINT ( 'NONE',  ( 50.00000000000000000, 17.50000000000001421, -35.00000000000002842 ) ) ;
#785 = LINE ( 'NONE', #1304, #1248 ) ;
#786 = ORIENTED_EDGE ( 'NONE', *, *, #668, .T. ) ;
#787 = PLANE ( 'NONE',  #1315 ) ;
#788 = ORIENTED_EDGE ( 'NONE', *, *, #658, .T. ) ;
#789 = ADVANCED_FACE ( 'NONE', ( #498 ), #907, .T. ) ;
#790 = CYLINDRICAL_SURFACE ( 'NONE', #1205, 5.000000000000004441 ) ;
#791 = DIRECTION ( 'NONE',  ( -0.000000000000000000, 4.037174634998263630E-13, -1.000000000000000000 ) ) ;
#792 = ORIENTED_EDGE ( 'NONE', *, *, #1010, .T. ) ;
#793 = DIRECTION ( 'NONE',  ( -1.000000000000000000, -0.000000000000000000, -0.000000000000000000 ) ) ;
#794 = ORIENTED_EDGE ( 'NONE', *, *, #286, .T. ) ;
#795 = ADVANCED_FACE ( 'NONE', ( #476 ), #1002, .T. ) ;
#796 = LINE ( 'NONE', #84, #1268 ) ;
#797 = AXIS2_PLACEMENT_3D ( 'NONE', #310, #221, #542 ) ;
#798 = DIRECTION ( 'NONE',  ( -0.000000000000000000, -4.226417196013700284E-13, 1.000000000000000000 ) ) ;
#799 = AXIS2_PLACEMENT_3D ( 'NONE', #66, #916, #380 ) ;
#800 = CARTESIAN_POINT ( 'NONE',  ( 50.00000000000000000, 10.95000000000000107, -38.50000000000009237 ) ) ;
#801 = VERTEX_POINT ( 'NONE', #1008 ) ;
#802 = CARTESIAN_POINT ( 'NONE',  ( 50.00000000000000000, -12.39999999999998792, 34.00000000000000000 ) ) ;
#803 = ADVANCED_FACE ( 'NONE', ( #701 ), #69, .T. ) ;
#804 = ADVANCED_FACE ( 'NONE', ( #1214 ), #282, .F. ) ;
#805 = PLANE ( 'NONE',  #970 ) ;
#806 = DIRECTION ( 'NONE',  ( 1.000000000000000000, 0.000000000000000000, -0.000000000000000000 ) ) ;
#807 = ORIENTED_EDGE ( 'NONE', *, *, #1241, .F. ) ;
#808 = VERTEX_POINT ( 'NONE', #1325 ) ;
#809 = CARTESIAN_POINT ( 'NONE',  ( 50.00000000000000000, 13.20000000000000284, 36.69999999999996021 ) ) ;
#810 = DIRECTION ( 'NONE',  ( -1.000000000000000000, -0.000000000000000000, -0.000000000000000000 ) ) ;
#811 = EDGE_CURVE ( 'NONE', #961, #520, #724, .T. ) ;
#812 = FACE_OUTER_BOUND ( 'NONE', #1083, .T. ) ;
#813 = ORIENTED_EDGE ( 'NONE', *, *, #171, .F. ) ;
#814 = ORIENTED_EDGE ( 'NONE', *, *, #63, .F. ) ;
#815 = CARTESIAN_POINT ( 'NONE',  ( -50.00000000000000000, -13.99999999999998579, -35.10000000000002984 ) ) ;
#816 = VECTOR ( 'NONE', #414, 1000.000000000000000 ) ;
#817 = CARTESIAN_POINT ( 'NONE',  ( -50.00000000000000000, -10.94999999999997975, 34.00000000000000000 ) ) ;
#818 = AXIS2_PLACEMENT_3D ( 'NONE', #106, #524, #942 ) ;
#819 = CARTESIAN_POINT ( 'NONE',  ( -50.00000000000000000, -10.94999999999997975, -38.50000000000009237 ) ) ;
#820 = CIRCLE ( 'NONE', #799, 0.9999999999999870104 ) ;
#821 = EDGE_CURVE ( 'NONE', #919, #302, #934, .T. ) ;
#822 = VERTEX_POINT ( 'NONE', #1338 ) ;
#823 = EDGE_LOOP ( 'NONE', ( #366, #813, #1156, #984 ) ) ;
#824 = DIRECTION ( 'NONE',  ( 1.000000000000000000, 0.000000000000000000, 0.000000000000000000 ) ) ;
#825 = CARTESIAN_POINT ( 'NONE',  ( 50.00000000000000000, 15.95000000000000639, -34.00000000000002842 ) ) ;
#826 = LINE ( 'NONE', #714, #11 ) ;
#827 = VERTEX_POINT ( 'NONE', #611 ) ;
#828 = VERTEX_POINT ( 'NONE', #394 ) ;
#829 = CARTESIAN_POINT ( 'NONE',  ( 50.00000000000000000, 17.50000000000001421, -35.00000000000002842 ) ) ;
#830 = FACE_OUTER_BOUND ( 'NONE', #259, .T. ) ;
#831 = CARTESIAN_POINT ( 'NONE',  ( -50.00000000000000000, 12.50000000000001066, 40.00000000000003553 ) ) ;
#832 = CARTESIAN_POINT ( 'NONE',  ( 50.00000000000000000, 10.95000000000000107, 38.50000000000000711 ) ) ;
#833 = VERTEX_POINT ( 'NONE', #732 ) ;
#834 = CARTESIAN_POINT ( 'NONE',  ( 50.00000000000000000, -12.49999999999999112, -40.00000000000003553 ) ) ;
#835 = EDGE_CURVE ( 'NONE', #601, #652, #1124, .T. ) ;
#836 = DIRECTION ( 'NONE',  ( -1.000000000000000000, -0.000000000000000000, -0.000000000000000000 ) ) ;
#837 = LINE ( 'NONE', #1344, #362 ) ;
#838 = CARTESIAN_POINT ( 'NONE',  ( -50.00000000000000000, 12.40000000000002167, -34.00000000000002842 ) ) ;
#839 = VECTOR ( 'NONE', #791, 1000.000000000000000 ) ;
#840 = ORIENTED_EDGE ( 'NONE', *, *, #1181, .T. ) ;
#841 = VECTOR ( 'NONE', #1079, 1000.000000000000000 ) ;
#842 = VERTEX_POINT ( 'NONE', #928 ) ;
#843 = CARTESIAN_POINT ( 'NONE',  ( -50.00000000000000000, -14.00000000000043521, 35.10000000000063380 ) ) ;
#844 = CARTESIAN_POINT ( 'NONE',  ( 50.00000000000000000, 12.40000000000003055, -35.10000000000002984 ) ) ;
#845 = CARTESIAN_POINT ( 'NONE',  ( 50.00000000000000000, 14.00000000000001243, 35.10000000000002274 ) ) ;
#846 = EDGE_CURVE ( 'NONE', #875, #1203, #826, .T. ) ;
#847 = ORIENTED_EDGE ( 'NONE', *, *, #760, .F. ) ;
#848 = ORIENTED_EDGE ( 'NONE', *, *, #183, .T. ) ;
#849 = CARTESIAN_POINT ( 'NONE',  ( 50.00000000000000000, -12.49999999999999112, -35.00000000000002842 ) ) ;
#850 = ORIENTED_EDGE ( 'NONE', *, *, #85, .F. ) ;
#851 = EDGE_CURVE ( 'NONE', #781, #101, #837, .T. ) ;
#852 = DIRECTION ( 'NONE',  ( 0.000000000000000000, 0.000000000000000000, -1.000000000000000000 ) ) ;
#853 = ORIENTED_EDGE ( 'NONE', *, *, #329, .F. ) ;
#854 = CARTESIAN_POINT ( 'NONE',  ( 50.00000000000000000, 10.95000000000000107, 38.50000000000000711 ) ) ;
#855 = DIRECTION ( 'NONE',  ( 0.000000000000000000, -0.000000000000000000, 1.000000000000000000 ) ) ;
#856 = ORIENTED_EDGE ( 'NONE', *, *, #1105, .F. ) ;
#857 = VECTOR ( 'NONE', #742, 1000.000000000000000 ) ;
#858 = LINE ( 'NONE', #772, #951 ) ;
#859 = ADVANCED_FACE ( 'NONE', ( #503 ), #707, .F. ) ;
#860 = VECTOR ( 'NONE', #836, 1000.000000000000000 ) ;
#861 = ORIENTED_EDGE ( 'NONE', *, *, #1308, .T. ) ;
#862 = AXIS2_PLACEMENT_3D ( 'NONE', #145, #1172, #1177 ) ;
#863 = VECTOR ( 'NONE', #595, 1000.000000000000000 ) ;
#864 = DIRECTION ( 'NONE',  ( -1.000000000000000000, -0.000000000000000000, -0.000000000000000000 ) ) ;
#865 = DIRECTION ( 'NONE',  ( -1.000000000000000000, -0.000000000000000000, -0.000000000000000000 ) ) ;
#866 = ORIENTED_EDGE ( 'NONE', *, *, #218, .T. ) ;
#867 = PLANE ( 'NONE',  #251 ) ;
#868 = EDGE_CURVE ( 'NONE', #1095, #14, #400, .T. ) ;
#869 = PRESENTATION_LAYER_ASSIGNMENT (  '', '', ( #1085 ) ) ;
#870 = CARTESIAN_POINT ( 'NONE',  ( 50.00000000000000000, 10.95000000000000107, 38.50000000000000711 ) ) ;
#871 = CARTESIAN_POINT ( 'NONE',  ( 50.00000000000000000, -13.19999999999999574, -35.70000000000006679 ) ) ;
#872 = CARTESIAN_POINT ( 'NONE',  ( 50.00000000000000000, -14.00000000000043521, 35.10000000000063380 ) ) ;
#873 = ORIENTED_EDGE ( 'NONE', *, *, #722, .F. ) ;
#874 = DIRECTION ( 'NONE',  ( -0.000000000000000000, 1.000000000000000000, 4.289498049685655044E-13 ) ) ;
#875 = VERTEX_POINT ( 'NONE', #819 ) ;
#876 = CARTESIAN_POINT ( 'NONE',  ( 50.00000000000000000, -15.94999999999998508, 34.00000000000000000 ) ) ;
#877 = LINE ( 'NONE', #975, #1228 ) ;
#878 = FACE_OUTER_BOUND ( 'NONE', #1192, .T. ) ;
#879 = ORIENTED_EDGE ( 'NONE', *, *, #371, .T. ) ;
#880 = LINE ( 'NONE', #64, #599 ) ;
#881 = VERTEX_POINT ( 'NONE', #1129 ) ;
#882 = VECTOR ( 'NONE', #982, 1000.000000000000000 ) ;
#883 = VECTOR ( 'NONE', #485, 1000.000000000000000 ) ;
#884 = DIRECTION ( 'NONE',  ( -1.000000000000000000, 0.000000000000000000, -0.000000000000000000 ) ) ;
#885 = DIRECTION ( 'NONE',  ( -1.000000000000000000, -0.000000000000000000, -0.000000000000000000 ) ) ;
#886 = VERTEX_POINT ( 'NONE', #530 ) ;
#887 = EDGE_CURVE ( 'NONE', #822, #150, #1142, .T. ) ;
#888 = DIRECTION ( 'NONE',  ( -0.000000000000000000, 0.000000000000000000, 1.000000000000000000 ) ) ;
#889 = VERTEX_POINT ( 'NONE', #720 ) ;
#890 = LINE ( 'NONE', #663, #27 ) ;
#891 = FACE_OUTER_BOUND ( 'NONE', #1089, .T. ) ;
#892 = COLOUR_RGB ( '',0.8980392156862745390, 0.8980392156862745390, 0.8980392156862745390 ) ;
#893 = ORIENTED_EDGE ( 'NONE', *, *, #1103, .F. ) ;
#894 = DIRECTION ( 'NONE',  ( -0.000000000000000000, 1.000000000000000000, 4.037174634998263630E-13 ) ) ;
#895 = EDGE_CURVE ( 'NONE', #994, #150, #1233, .T. ) ;
#896 = ORIENTED_EDGE ( 'NONE', *, *, #703, .T. ) ;
#897 = CARTESIAN_POINT ( 'NONE',  ( 50.00000000000000000, 12.40000000000002167, -35.10000000000002274 ) ) ;
#898 = CARTESIAN_POINT ( 'NONE',  ( 50.00000000000000000, -17.49999999999998934, 35.00000000000002842 ) ) ;
#899 = ORIENTED_EDGE ( 'NONE', *, *, #589, .T. ) ;
#900 = ORIENTED_EDGE ( 'NONE', *, *, #253, .T. ) ;
#901 = EDGE_CURVE ( 'NONE', #369, #152, #510, .T. ) ;
#902 = ADVANCED_FACE ( 'NONE', ( #306 ), #200, .F. ) ;
#903 = LINE ( 'NONE', #1216, #1102 ) ;
#904 = AXIS2_PLACEMENT_3D ( 'NONE', #1191, #976, #762 ) ;
#905 = AXIS2_PLACEMENT_3D ( 'NONE', #28, #548, #38 ) ;
#906 = CARTESIAN_POINT ( 'NONE',  ( 50.00000000000000000, -10.94999999999997975, -38.50000000000009237 ) ) ;
#907 = PLANE ( 'NONE',  #513 ) ;
#908 = VERTEX_POINT ( 'NONE', #1041 ) ;
#909 = CARTESIAN_POINT ( 'NONE',  ( 50.00000000000000000, 12.50000000000001066, 35.00000000000002842 ) ) ;
#910 = ADVANCED_FACE ( 'NONE', ( #812 ), #605, .T. ) ;
#911 = VECTOR ( 'NONE', #325, 1000.000000000000000 ) ;
#912 = CARTESIAN_POINT ( 'NONE',  ( 50.00000000000000000, -12.39999999999998792, -34.00000000000002842 ) ) ;
#913 = CARTESIAN_POINT ( 'NONE',  ( 50.00000000000000000, 12.40000000000002167, -34.00000000000002842 ) ) ;
#914 = ORIENTED_EDGE ( 'NONE', *, *, #218, .F. ) ;
#915 = ORIENTED_EDGE ( 'NONE', *, *, #846, .F. ) ;
#916 = DIRECTION ( 'NONE',  ( 1.000000000000000000, 0.000000000000000000, 0.000000000000000000 ) ) ;
#917 = EDGE_CURVE ( 'NONE', #567, #217, #1230, .T. ) ;
#918 = ADVANCED_BREP_SHAPE_REPRESENTATION ( 'SC-ZT80X35-K170', ( #734, #193 ), #566 ) ;
#919 = VERTEX_POINT ( 'NONE', #422 ) ;
#920 = DIRECTION ( 'NONE',  ( -1.000000000000000000, -0.000000000000000000, -0.000000000000000000 ) ) ;
#921 = ORIENTED_EDGE ( 'NONE', *, *, #649, .F. ) ;
#922 = ORIENTED_EDGE ( 'NONE', *, *, #85, .T. ) ;
#923 = CARTESIAN_POINT ( 'NONE',  ( -50.00000000000000000, -12.39999999999998792, -34.00000000000002842 ) ) ;
#924 = VECTOR ( 'NONE', #220, 1000.000000000000000 ) ;
#925 = VECTOR ( 'NONE', #421, 1000.000000000000000 ) ;
#926 = CARTESIAN_POINT ( 'NONE',  ( -50.00000000000000000, 14.00000000000001243, -34.00000000000002842 ) ) ;
#927 = PRESENTATION_LAYER_ASSIGNMENT (  '', '', ( #404 ) ) ;
#928 = CARTESIAN_POINT ( 'NONE',  ( 50.00000000000000000, -13.19999999999998863, 36.69999999999999574 ) ) ;
#929 = VECTOR ( 'NONE', #1025, 1000.000000000000000 ) ;
#930 = ORIENTED_EDGE ( 'NONE', *, *, #660, .T. ) ;
#931 = ADVANCED_FACE ( 'NONE', ( #1047 ), #1252, .T. ) ;
#932 = DIRECTION ( 'NONE',  ( -1.000000000000000000, -0.000000000000000000, -0.000000000000000000 ) ) ;
#933 = FACE_BOUND ( 'NONE', #628, .T. ) ;
#934 = LINE ( 'NONE', #1134, #339 ) ;
#935 = FACE_OUTER_BOUND ( 'NONE', #689, .T. ) ;
#936 = ORIENTED_EDGE ( 'NONE', *, *, #134, .T. ) ;
#937 = UNCERTAINTY_MEASURE_WITH_UNIT (LENGTH_MEASURE( 1.000000000000000082E-05 ), #1096, 'distance_accuracy_value', 'NONE');
#938 = EDGE_CURVE ( 'NONE', #155, #567, #948, .T. ) ;
#939 = ORIENTED_EDGE ( 'NONE', *, *, #851, .F. ) ;
#940 = DIRECTION ( 'NONE',  ( -0.000000000000000000, 1.000000000000000000, -0.000000000000000000 ) ) ;
#941 = CARTESIAN_POINT ( 'NONE',  ( 50.00000000000000000, -10.94999999999997975, -38.50000000000009237 ) ) ;
#942 = DIRECTION ( 'NONE',  ( 0.000000000000000000, 0.000000000000000000, -1.000000000000000000 ) ) ;
#943 = DIRECTION ( 'NONE',  ( 0.000000000000000000, -0.000000000000000000, 1.000000000000000000 ) ) ;
#944 = ORIENTED_EDGE ( 'NONE', *, *, #811, .F. ) ;
#945 = LINE ( 'NONE', #515, #399 ) ;
#946 = ADVANCED_FACE ( 'NONE', ( #1178 ), #327, .T. ) ;
#947 = DIRECTION ( 'NONE',  ( -0.000000000000000000, 1.000000000000000000, -0.000000000000000000 ) ) ;
#948 = LINE ( 'NONE', #1223, #1332 ) ;
#949 = AXIS2_PLACEMENT_3D ( 'NONE', #1021, #86, #1328 ) ;
#950 = ORIENTED_EDGE ( 'NONE', *, *, #1151, .F. ) ;
#951 = VECTOR ( 'NONE', #25, 1000.000000000000000 ) ;
#952 = VERTEX_POINT ( 'NONE', #767 ) ;
#953 = EDGE_CURVE ( 'NONE', #217, #1311, #474, .T. ) ;
#954 = PLANE ( 'NONE',  #204 ) ;
#955 = VERTEX_POINT ( 'NONE', #981 ) ;
#956 = CARTESIAN_POINT ( 'NONE',  ( -50.00000000000000000, 14.00000000000000711, 35.10000000000002274 ) ) ;
#957 = ORIENTED_EDGE ( 'NONE', *, *, #953, .F. ) ;
#958 = LINE ( 'NONE', #834, #1032 ) ;
#959 = LINE ( 'NONE', #1343, #1163 ) ;
#960 = ADVANCED_FACE ( 'NONE', ( #670 ), #790, .T. ) ;
#961 = VERTEX_POINT ( 'NONE', #367 ) ;
#962 = CYLINDRICAL_SURFACE ( 'NONE', #1054, 0.9999999999999870104 ) ;
#963 = ORIENTED_EDGE ( 'NONE', *, *, #589, .F. ) ;
#964 =( NAMED_UNIT ( * ) SI_UNIT ( $, .STERADIAN. ) SOLID_ANGLE_UNIT ( ) );
#965 = LINE ( 'NONE', #1253, #447 ) ;
#966 = LINE ( 'NONE', #1094, #1270 ) ;
#967 = ORIENTED_EDGE ( 'NONE', *, *, #136, .T. ) ;
#968 = VECTOR ( 'NONE', #299, 1000.000000000000000 ) ;
#969 = CARTESIAN_POINT ( 'NONE',  ( 50.00000000000000000, 13.20000000000000284, 35.69999999999998153 ) ) ;
#970 = AXIS2_PLACEMENT_3D ( 'NONE', #800, #199, #1232 ) ;
#971 = ORIENTED_EDGE ( 'NONE', *, *, #8, .T. ) ;
#972 = CIRCLE ( 'NONE', #428, 0.9999999999999800160 ) ;
#973 = CIRCLE ( 'NONE', #59, 5.000000000000004441 ) ;
#974 = CARTESIAN_POINT ( 'NONE',  ( -50.00000000000000000, -13.19999999999998863, 35.70000000000000995 ) ) ;
#975 = CARTESIAN_POINT ( 'NONE',  ( 50.00000000000000000, -10.94999999999997975, 38.50000000000000711 ) ) ;
#976 = DIRECTION ( 'NONE',  ( -1.000000000000000000, -0.000000000000000000, -0.000000000000000000 ) ) ;
#977 = ORIENTED_EDGE ( 'NONE', *, *, #78, .F. ) ;
#978 = DIRECTION ( 'NONE',  ( 1.000000000000000000, 0.000000000000000000, 0.000000000000000000 ) ) ;
#979 = VERTEX_POINT ( 'NONE', #1086 ) ;
#980 = FILL_AREA_STYLE ('',( #246 ) ) ;
#981 = CARTESIAN_POINT ( 'NONE',  ( -50.00000000000000000, -15.94999999999998508, -34.00000000000002842 ) ) ;
#982 = DIRECTION ( 'NONE',  ( -1.000000000000000000, -0.000000000000000000, -0.000000000000000000 ) ) ;
#983 = LINE ( 'NONE', #999, #839 ) ;
#984 = ORIENTED_EDGE ( 'NONE', *, *, #868, .T. ) ;
#985 = LINE ( 'NONE', #223, #122 ) ;
#986 = ORIENTED_EDGE ( 'NONE', *, *, #429, .F. ) ;
#987 = UNCERTAINTY_MEASURE_WITH_UNIT (LENGTH_MEASURE( 1.000000000000000082E-05 ), #1195, 'distance_accuracy_value', 'NONE');
#988 = LINE ( 'NONE', #1201, #616 ) ;
#989 = EDGE_CURVE ( 'NONE', #538, #952, #478, .T. ) ;
#990 = LINE ( 'NONE', #657, #226 ) ;
#991 = ORIENTED_EDGE ( 'NONE', *, *, #1132, .T. ) ;
#992 = CARTESIAN_POINT ( 'NONE',  ( -50.00000000000000000, 15.95000000000000639, -34.00000000000002842 ) ) ;
#993 = VECTOR ( 'NONE', #1324, 1000.000000000000000 ) ;
#994 = VERTEX_POINT ( 'NONE', #45 ) ;
#995 = AXIS2_PLACEMENT_3D ( 'NONE', #389, #810, #615 ) ;
#996 = VECTOR ( 'NONE', #1273, 1000.000000000000000 ) ;
#997 = CARTESIAN_POINT ( 'NONE',  ( 50.00000000000000000, 12.50000000000001066, 35.00000000000002842 ) ) ;
#998 = AXIS2_PLACEMENT_3D ( 'NONE', #974, #1289, #555 ) ;
#999 = CARTESIAN_POINT ( 'NONE',  ( -50.00000000000000000, -13.99999999999999112, 34.00000000000000000 ) ) ;
#1000 = EDGE_CURVE ( 'NONE', #808, #323, #988, .T. ) ;
#1001 = VERTEX_POINT ( 'NONE', #147 ) ;
#1002 = PLANE ( 'NONE',  #536 ) ;
#1003 = ORIENTED_EDGE ( 'NONE', *, *, #627, .F. ) ;
#1004 = CARTESIAN_POINT ( 'NONE',  ( 50.00000000000000000, -13.99999999999999112, -35.10000000000002274 ) ) ;
#1005 = CARTESIAN_POINT ( 'NONE',  ( 50.00000000000000000, -10.94999999999997975, -38.50000000000009237 ) ) ;
#1006 = ORIENTED_EDGE ( 'NONE', *, *, #134, .F. ) ;
#1007 = EDGE_CURVE ( 'NONE', #19, #1299, #688, .T. ) ;
#1008 = CARTESIAN_POINT ( 'NONE',  ( 50.00000000000000000, 13.20000000000000284, 36.69999999999996021 ) ) ;
#1009 = ORIENTED_EDGE ( 'NONE', *, *, #1241, .T. ) ;
#1010 = EDGE_CURVE ( 'NONE', #594, #1186, #169, .T. ) ;
#1011 = FACE_OUTER_BOUND ( 'NONE', #1340, .T. ) ;
#1012 = DIRECTION ( 'NONE',  ( 1.000000000000000000, 0.000000000000000000, 0.000000000000000000 ) ) ;
#1013 = ORIENTED_EDGE ( 'NONE', *, *, #411, .T. ) ;
#1014 = EDGE_CURVE ( 'NONE', #424, #626, #776, .T. ) ;
#1015 = DIRECTION ( 'NONE',  ( 1.000000000000000000, 0.000000000000000000, 0.000000000000000000 ) ) ;
#1016 = AXIS2_PLACEMENT_3D ( 'NONE', #374, #1104, #1285 ) ;
#1017 = AXIS2_PLACEMENT_3D ( 'NONE', #355, #746, #238 ) ;
#1018 = ORIENTED_EDGE ( 'NONE', *, *, #1111, .F. ) ;
#1019 = VERTEX_POINT ( 'NONE', #268 ) ;
#1020 = LINE ( 'NONE', #1004, #341 ) ;
#1021 = CARTESIAN_POINT ( 'NONE',  ( -50.00000000000000000, 13.20000000000000284, 35.69999999999998153 ) ) ;
#1022 = CARTESIAN_POINT ( 'NONE',  ( 50.00000000000000000, 10.95000000000000107, 34.00000000000000000 ) ) ;
#1023 = ORIENTED_EDGE ( 'NONE', *, *, #1323, .F. ) ;
#1024 = ORIENTED_EDGE ( 'NONE', *, *, #444, .T. ) ;
#1025 = DIRECTION ( 'NONE',  ( -0.000000000000000000, -0.000000000000000000, 1.000000000000000000 ) ) ;
#1026 = EDGE_CURVE ( 'NONE', #314, #1346, #890, .T. ) ;
#1027 = LINE ( 'NONE', #926, #993 ) ;
#1028 = DIRECTION ( 'NONE',  ( -0.000000000000000000, 1.000000000000000000, -0.000000000000000000 ) ) ;
#1029 = ORIENTED_EDGE ( 'NONE', *, *, #364, .F. ) ;
#1030 = ORIENTED_EDGE ( 'NONE', *, *, #1339, .F. ) ;
#1031 = CARTESIAN_POINT ( 'NONE',  ( 50.00000000000000000, 15.95000000000000639, -34.00000000000002842 ) ) ;
#1032 = VECTOR ( 'NONE', #1039, 1000.000000000000000 ) ;
#1033 = VECTOR ( 'NONE', #22, 1000.000000000000000 ) ;
#1034 = CARTESIAN_POINT ( 'NONE',  ( -50.00000000000000000, 12.40000000000002167, 34.00000000000000000 ) ) ;
#1035 = ADVANCED_FACE ( 'NONE', ( #470 ), #678, .T. ) ;
#1036 = DIRECTION ( 'NONE',  ( -1.000000000000000000, -0.000000000000000000, -0.000000000000000000 ) ) ;
#1037 = VECTOR ( 'NONE', #1327, 1000.000000000000000 ) ;
#1038 = ORIENTED_EDGE ( 'NONE', *, *, #717, .T. ) ;
#1039 = DIRECTION ( 'NONE',  ( -1.000000000000000000, -0.000000000000000000, -0.000000000000000000 ) ) ;
#1040 = CARTESIAN_POINT ( 'NONE',  ( 50.00000000000000000, 14.00000000000001243, 34.00000000000000000 ) ) ;
#1041 = CARTESIAN_POINT ( 'NONE',  ( 50.00000000000000000, -17.49999999999998934, -35.00000000000002842 ) ) ;
#1042 = LINE ( 'NONE', #1064, #882 ) ;
#1043 = ORIENTED_EDGE ( 'NONE', *, *, #1072, .T. ) ;
#1044 = ADVANCED_FACE ( 'NONE', ( #1297 ), #37, .F. ) ;
#1045 = DIRECTION ( 'NONE',  ( -1.000000000000000000, -0.000000000000000000, -0.000000000000000000 ) ) ;
#1046 = CARTESIAN_POINT ( 'NONE',  ( -50.00000000000000000, -13.99999999999999112, -34.00000000000002842 ) ) ;
#1047 = FACE_OUTER_BOUND ( 'NONE', #332, .T. ) ;
#1048 = ORIENTED_EDGE ( 'NONE', *, *, #378, .T. ) ;
#1049 = VERTEX_POINT ( 'NONE', #684 ) ;
#1050 = EDGE_CURVE ( 'NONE', #1186, #23, #159, .T. ) ;
#1051 = CARTESIAN_POINT ( 'NONE',  ( 50.00000000000000000, -12.39999999999998792, -34.00000000000002842 ) ) ;
#1052 = CARTESIAN_POINT ( 'NONE',  ( 50.00000000000000000, 15.95000000000000639, -34.00000000000002842 ) ) ;
#1053 = VECTOR ( 'NONE', #525, 1000.000000000000000 ) ;
#1054 = AXIS2_PLACEMENT_3D ( 'NONE', #1062, #638, #467 ) ;
#1055 = VERTEX_POINT ( 'NONE', #1101 ) ;
#1056 = CARTESIAN_POINT ( 'NONE',  ( 50.00000000000000000, 12.40000000000003055, -35.10000000000002984 ) ) ;
#1057 = VECTOR ( 'NONE', #215, 1000.000000000000000 ) ;
#1058 = ORIENTED_EDGE ( 'NONE', *, *, #1014, .F. ) ;
#1059 = DIRECTION ( 'NONE',  ( 0.000000000000000000, -1.000000000000000000, 0.000000000000000000 ) ) ;
#1060 = CARTESIAN_POINT ( 'NONE',  ( -50.00000000000000000, -10.94999999999997975, -34.00000000000002842 ) ) ;
#1061 = ORIENTED_EDGE ( 'NONE', *, *, #262, .T. ) ;
#1062 = CARTESIAN_POINT ( 'NONE',  ( 50.00000000000000000, -13.19999999999998863, 35.70000000000000995 ) ) ;
#1063 = PRODUCT_DEFINITION_FORMATION_WITH_SPECIFIED_SOURCE ( '任何', '', #546, .NOT_KNOWN. ) ;
#1064 = CARTESIAN_POINT ( 'NONE',  ( 50.00000000000000000, 15.95000000000000639, -34.00000000000002842 ) ) ;
#1065 = CARTESIAN_POINT ( 'NONE',  ( 50.00000000000000000, 10.95000000000000107, -38.50000000000009237 ) ) ;
#1066 = ORIENTED_EDGE ( 'NONE', *, *, #703, .F. ) ;
#1067 = CARTESIAN_POINT ( 'NONE',  ( -50.00000000000000000, -13.99999999999999112, -34.00000000000002842 ) ) ;
#1068 = DIRECTION ( 'NONE',  ( 0.000000000000000000, -0.000000000000000000, -1.000000000000000000 ) ) ;
#1069 = CARTESIAN_POINT ( 'NONE',  ( 50.00000000000000000, 15.95000000000000639, -34.00000000000002842 ) ) ;
#1070 = CARTESIAN_POINT ( 'NONE',  ( 50.00000000000000000, -15.94999999999998508, -34.00000000000002842 ) ) ;
#1071 = ORIENTED_EDGE ( 'NONE', *, *, #437, .F. ) ;
#1072 = EDGE_CURVE ( 'NONE', #261, #538, #577, .T. ) ;
#1073 = LINE ( 'NONE', #653, #996 ) ;
#1074 = CIRCLE ( 'NONE', #491, 5.000000000000000888 ) ;
#1075 = ORIENTED_EDGE ( 'NONE', *, *, #1111, .T. ) ;
#1076 = AXIS2_PLACEMENT_3D ( 'NONE', #913, #390, #384 ) ;
#1077 = SURFACE_SIDE_STYLE ('',( #158 ) ) ;
#1078 = DIRECTION ( 'NONE',  ( -0.000000000000000000, -0.000000000000000000, 1.000000000000000000 ) ) ;
#1079 = DIRECTION ( 'NONE',  ( -0.000000000000000000, -0.000000000000000000, -1.000000000000000000 ) ) ;
#1080 = LINE ( 'NONE', #572, #120 ) ;
#1081 = ORIENTED_EDGE ( 'NONE', *, *, #938, .F. ) ;
#1082 = LINE ( 'NONE', #568, #1251 ) ;
#1083 = EDGE_LOOP ( 'NONE', ( #573, #547, #1159, #324 ) ) ;
#1084 = ADVANCED_FACE ( 'NONE', ( #431 ), #563, .T. ) ;
#1085 = STYLED_ITEM ( 'NONE', ( #1276 ), #918 ) ;
#1086 = CARTESIAN_POINT ( 'NONE',  ( 50.00000000000000000, 12.50000000000001066, 40.00000000000003553 ) ) ;
#1087 = LINE ( 'NONE', #322, #95 ) ;
#1088 = DIRECTION ( 'NONE',  ( 0.000000000000000000, 0.000000000000000000, 1.000000000000000000 ) ) ;
#1089 = EDGE_LOOP ( 'NONE', ( #522, #733, #1320, #386 ) ) ;
#1090 = CARTESIAN_POINT ( 'NONE',  ( 50.00000000000000000, 14.00000000000000711, 35.10000000000002274 ) ) ;
#1091 = ORIENTED_EDGE ( 'NONE', *, *, #602, .F. ) ;
#1092 = EDGE_CURVE ( 'NONE', #486, #1055, #139, .T. ) ;
#1093 = DIRECTION ( 'NONE',  ( 0.000000000000000000, -0.000000000000000000, -1.000000000000000000 ) ) ;
#1094 = CARTESIAN_POINT ( 'NONE',  ( 50.00000000000000000, 12.40000000000002167, -34.00000000000002842 ) ) ;
#1095 = VERTEX_POINT ( 'NONE', #1120 ) ;
#1096 =( LENGTH_UNIT ( ) NAMED_UNIT ( * ) SI_UNIT ( .MILLI., .METRE. ) );
#1097 = VECTOR ( 'NONE', #79, 1000.000000000000000 ) ;
#1098 = ORIENTED_EDGE ( 'NONE', *, *, #379, .T. ) ;
#1099 = VECTOR ( 'NONE', #651, 1000.000000000000000 ) ;
#1100 = VECTOR ( 'NONE', #1036, 1000.000000000000000 ) ;
#1101 = CARTESIAN_POINT ( 'NONE',  ( -50.00000000000000000, 10.95000000000000107, 38.50000000000000711 ) ) ;
#1102 = VECTOR ( 'NONE', #440, 1000.000000000000000 ) ;
#1103 = EDGE_CURVE ( 'NONE', #89, #783, #277, .T. ) ;
#1104 = DIRECTION ( 'NONE',  ( 0.000000000000000000, 0.000000000000000000, -1.000000000000000000 ) ) ;
#1105 = EDGE_CURVE ( 'NONE', #961, #979, #973, .T. ) ;
#1106 = ORIENTED_EDGE ( 'NONE', *, *, #609, .T. ) ;
#1107 = LINE ( 'NONE', #1090, #708 ) ;
#1108 = ORIENTED_EDGE ( 'NONE', *, *, #292, .F. ) ;
#1109 = LINE ( 'NONE', #809, #582 ) ;
#1110 = CARTESIAN_POINT ( 'NONE',  ( 50.00000000000000000, -10.94999999999997975, -38.50000000000009237 ) ) ;
#1111 = EDGE_CURVE ( 'NONE', #601, #827, #1131, .T. ) ;
#1112 = CARTESIAN_POINT ( 'NONE',  ( 50.00000000000000000, -12.49999999999999112, -40.00000000000003553 ) ) ;
#1113 = ORIENTED_EDGE ( 'NONE', *, *, #453, .F. ) ;
#1114 = DIRECTION ( 'NONE',  ( -1.000000000000000000, -0.000000000000000000, -0.000000000000000000 ) ) ;
#1115 = ORIENTED_EDGE ( 'NONE', *, *, #1225, .T. ) ;
#1116 = SURFACE_SIDE_STYLE ('',( #681 ) ) ;
#1117 = EDGE_CURVE ( 'NONE', #979, #822, #496, .T. ) ;
#1118 = ORIENTED_EDGE ( 'NONE', *, *, #146, .F. ) ;
#1119 = ORIENTED_EDGE ( 'NONE', *, *, #668, .F. ) ;
#1120 = CARTESIAN_POINT ( 'NONE',  ( 50.00000000000000000, 14.00000000000045652, -35.10000000000068354 ) ) ;
#1121 = CIRCLE ( 'NONE', #579, 0.9999999999999870104 ) ;
#1122 = CIRCLE ( 'NONE', #77, 1.000000000000014655 ) ;
#1123 = CARTESIAN_POINT ( 'NONE',  ( 50.00000000000000000, 12.50000000000001066, -40.00000000000003553 ) ) ;
#1124 = LINE ( 'NONE', #517, #1100 ) ;
#1125 = ORIENTED_EDGE ( 'NONE', *, *, #253, .F. ) ;
#1126 = DIRECTION ( 'NONE',  ( 0.000000000000000000, -0.000000000000000000, 1.000000000000000000 ) ) ;
#1127 = CARTESIAN_POINT ( 'NONE',  ( 50.00000000000000000, -12.39999999999998792, 35.10000000000002274 ) ) ;
#1128 = PLANE ( 'NONE',  #554 ) ;
#1129 = CARTESIAN_POINT ( 'NONE',  ( -50.00000000000000000, 10.95000000000000107, 34.00000000000000000 ) ) ;
#1130 = EDGE_LOOP ( 'NONE', ( #991, #363, #1254, #1234 ) ) ;
#1131 = LINE ( 'NONE', #298, #1097 ) ;
#1132 = EDGE_CURVE ( 'NONE', #302, #65, #34, .T. ) ;
#1133 = FACE_OUTER_BOUND ( 'NONE', #32, .T. ) ;
#1134 = CARTESIAN_POINT ( 'NONE',  ( -50.00000000000000000, -12.49999999999999112, -40.00000000000003553 ) ) ;
#1135 = ORIENTED_EDGE ( 'NONE', *, *, #1072, .F. ) ;
#1136 = VERTEX_POINT ( 'NONE', #815 ) ;
#1137 = CARTESIAN_POINT ( 'NONE',  ( 50.00000000000000000, 15.95000000000000639, -34.00000000000002842 ) ) ;
#1138 = EDGE_CURVE ( 'NONE', #23, #842, #820, .T. ) ;
#1139 = VECTOR ( 'NONE', #176, 1000.000000000000000 ) ;
#1140 = CARTESIAN_POINT ( 'NONE',  ( 50.00000000000000000, -13.99999999999998579, -35.10000000000002984 ) ) ;
#1141 = VECTOR ( 'NONE', #1165, 1000.000000000000000 ) ;
#1142 = LINE ( 'NONE', #1238, #31 ) ;
#1143 = ADVANCED_FACE ( 'NONE', ( #1011 ), #692, .F. ) ;
#1144 = CARTESIAN_POINT ( 'NONE',  ( -50.00000000000000000, 10.95000000000000107, 34.00000000000000000 ) ) ;
#1145 = ORIENTED_EDGE ( 'NONE', *, *, #895, .F. ) ;
#1146 = ORIENTED_EDGE ( 'NONE', *, *, #953, .T. ) ;
#1147 = CARTESIAN_POINT ( 'NONE',  ( 50.00000000000000000, -13.99999999999999112, -34.00000000000002842 ) ) ;
#1148 = CARTESIAN_POINT ( 'NONE',  ( 50.00000000000000000, 12.39999999999955094, 35.10000000000063380 ) ) ;
#1149 = CARTESIAN_POINT ( 'NONE',  ( 50.00000000000000000, 14.00000000000001243, -34.00000000000002842 ) ) ;
#1150 = ORIENTED_EDGE ( 'NONE', *, *, #1138, .F. ) ;
#1151 = EDGE_CURVE ( 'NONE', #801, #283, #1109, .T. ) ;
#1152 = VERTEX_POINT ( 'NONE', #392 ) ;
#1153 = FACE_OUTER_BOUND ( 'NONE', #659, .T. ) ;
#1154 = DIRECTION ( 'NONE',  ( -1.000000000000000000, -0.000000000000000000, -0.000000000000000000 ) ) ;
#1155 = DIRECTION ( 'NONE',  ( 0.000000000000000000, 0.000000000000000000, -1.000000000000000000 ) ) ;
#1156 = ORIENTED_EDGE ( 'NONE', *, *, #614, .T. ) ;
#1157 = DIRECTION ( 'NONE',  ( 1.000000000000000000, 0.000000000000000000, 0.000000000000000000 ) ) ;
#1158 = EDGE_CURVE ( 'NONE', #19, #302, #179, .T. ) ;
#1159 = ORIENTED_EDGE ( 'NONE', *, *, #1323, .T. ) ;
#1160 = LINE ( 'NONE', #1242, #736 ) ;
#1161 = VECTOR ( 'NONE', #51, 1000.000000000000000 ) ;
#1162 = DIRECTION ( 'NONE',  ( -1.000000000000000000, -0.000000000000000000, -0.000000000000000000 ) ) ;
#1163 = VECTOR ( 'NONE', #319, 1000.000000000000000 ) ;
#1164 = ORIENTED_EDGE ( 'NONE', *, *, #677, .F. ) ;
#1165 = DIRECTION ( 'NONE',  ( -0.000000000000000000, -1.000000000000000000, -0.000000000000000000 ) ) ;
#1166 = VECTOR ( 'NONE', #350, 1000.000000000000000 ) ;
#1167 = ORIENTED_EDGE ( 'NONE', *, *, #660, .F. ) ;
#1168 = DIRECTION ( 'NONE',  ( -0.000000000000000000, -1.000000000000000000, -0.000000000000000000 ) ) ;
#1169 = CARTESIAN_POINT ( 'NONE',  ( -50.00000000000000000, 14.00000000000001243, 34.00000000000000000 ) ) ;
#1170 = CARTESIAN_POINT ( 'NONE',  ( -50.00000000000000000, -13.19999999999998863, 36.69999999999999574 ) ) ;
#1171 = ORIENTED_EDGE ( 'NONE', *, *, #508, .T. ) ;
#1172 = DIRECTION ( 'NONE',  ( 1.000000000000000000, 0.000000000000000000, 0.000000000000000000 ) ) ;
#1173 = APPLICATION_PROTOCOL_DEFINITION ( 'draft international standard', 'automotive_design', 1998, #1267 ) ;
#1174 = CARTESIAN_POINT ( 'NONE',  ( 50.00000000000000000, -12.49999999999999112, 35.00000000000002842 ) ) ;
#1175 = LINE ( 'NONE', #360, #250 ) ;
#1176 = ORIENTED_EDGE ( 'NONE', *, *, #44, .T. ) ;
#1177 = DIRECTION ( 'NONE',  ( 0.000000000000000000, 0.000000000000000000, -1.000000000000000000 ) ) ;
#1178 = FACE_OUTER_BOUND ( 'NONE', #288, .T. ) ;
#1179 = CARTESIAN_POINT ( 'NONE',  ( -50.00000000000000000, -12.39999999999999503, 35.10000000000002274 ) ) ;
#1180 = LINE ( 'NONE', #353, #164 ) ;
#1181 = EDGE_CURVE ( 'NONE', #626, #283, #167, .T. ) ;
#1182 = EDGE_LOOP ( 'NONE', ( #740, #1272, #494, #211 ) ) ;
#1183 = ADVANCED_FACE ( 'NONE', ( #175 ), #289, .T. ) ;
#1184 = CARTESIAN_POINT ( 'NONE',  ( 50.00000000000000000, -15.94999999999998508, 34.00000000000000000 ) ) ;
#1185 = AXIS2_PLACEMENT_3D ( 'NONE', #723, #1257, #630 ) ;
#1186 = VERTEX_POINT ( 'NONE', #802 ) ;
#1187 = AXIS2_PLACEMENT_3D ( 'NONE', #560, #874, #1287 ) ;
#1188 = DIRECTION ( 'NONE',  ( 0.000000000000000000, 0.000000000000000000, 1.000000000000000000 ) ) ;
#1189 = CARTESIAN_POINT ( 'NONE',  ( -50.00000000000000000, 14.00000000000001243, 35.10000000000002274 ) ) ;
#1190 = DIRECTION ( 'NONE',  ( 0.000000000000000000, 1.000000000000000000, 0.000000000000000000 ) ) ;
#1191 = CARTESIAN_POINT ( 'NONE',  ( 50.00000000000000000, -12.49999999999999112, 35.00000000000002842 ) ) ;
#1192 = EDGE_LOOP ( 'NONE', ( #711, #13, #88, #402 ) ) ;
#1193 = CARTESIAN_POINT ( 'NONE',  ( 50.00000000000000000, -10.94999999999997975, -34.00000000000002842 ) ) ;
#1194 = EDGE_CURVE ( 'NONE', #1295, #418, #718, .T. ) ;
#1195 =( LENGTH_UNIT ( ) NAMED_UNIT ( * ) SI_UNIT ( .MILLI., .METRE. ) );
#1196 = CARTESIAN_POINT ( 'NONE',  ( 50.00000000000000000, 12.40000000000002167, -34.00000000000002842 ) ) ;
#1197 = DIRECTION ( 'NONE',  ( -1.000000000000000000, -0.000000000000000000, -0.000000000000000000 ) ) ;
#1198 = ORIENTED_EDGE ( 'NONE', *, *, #136, .F. ) ;
#1199 = EDGE_LOOP ( 'NONE', ( #680, #850, #1260, #68 ) ) ;
#1200 = EDGE_CURVE ( 'NONE', #1347, #486, #608, .T. ) ;
#1201 = CARTESIAN_POINT ( 'NONE',  ( -50.00000000000000000, -17.49999999999998934, 35.00000000000002842 ) ) ;
#1202 = DIRECTION ( 'NONE',  ( 0.000000000000000000, 0.000000000000000000, -1.000000000000000000 ) ) ;
#1203 = VERTEX_POINT ( 'NONE', #1309 ) ;
#1204 = DIRECTION ( 'NONE',  ( 1.000000000000000000, 0.000000000000000000, 0.000000000000000000 ) ) ;
#1205 = AXIS2_PLACEMENT_3D ( 'NONE', #997, #373, #153 ) ;
#1206 = ORIENTED_EDGE ( 'NONE', *, *, #280, .T. ) ;
#1207 = VECTOR ( 'NONE', #502, 1000.000000000000000 ) ;
#1208 = MECHANICAL_DESIGN_GEOMETRIC_PRESENTATION_REPRESENTATION (  '', ( #404 ), #274 ) ;
#1209 = DIRECTION ( 'NONE',  ( 0.000000000000000000, 0.000000000000000000, -1.000000000000000000 ) ) ;
#1210 = AXIS2_PLACEMENT_3D ( 'NONE', #60, #1155, #884 ) ;
#1211 = EDGE_CURVE ( 'NONE', #1346, #138, #1020, .T. ) ;
#1212 = CARTESIAN_POINT ( 'NONE',  ( -50.00000000000000000, 15.95000000000000639, 34.00000000000000000 ) ) ;
#1213 = CARTESIAN_POINT ( 'NONE',  ( -50.00000000000000000, 12.50000000000001066, 35.00000000000002842 ) ) ;
#1214 = FACE_OUTER_BOUND ( 'NONE', #591, .T. ) ;
#1215 = ORIENTED_EDGE ( 'NONE', *, *, #52, .F. ) ;
#1216 = CARTESIAN_POINT ( 'NONE',  ( -50.00000000000000000, 12.40000000000002167, -35.10000000000002274 ) ) ;
#1217 = EDGE_CURVE ( 'NONE', #652, #451, #796, .T. ) ;
#1218 = LINE ( 'NONE', #825, #469 ) ;
#1219 = ORIENTED_EDGE ( 'NONE', *, *, #835, .F. ) ;
#1220 = ORIENTED_EDGE ( 'NONE', *, *, #1264, .T. ) ;
#1221 = DIRECTION ( 'NONE',  ( 1.000000000000000000, 0.000000000000000000, 0.000000000000000000 ) ) ;
#1222 = LINE ( 'NONE', #1034, #1139 ) ;
#1223 = CARTESIAN_POINT ( 'NONE',  ( -50.00000000000000000, -12.39999999999998792, 35.10000000000002274 ) ) ;
#1224 = ORIENTED_EDGE ( 'NONE', *, *, #658, .F. ) ;
#1225 = EDGE_CURVE ( 'NONE', #212, #908, #501, .T. ) ;
#1226 = CIRCLE ( 'NONE', #637, 5.000000000000004441 ) ;
#1227 = ORIENTED_EDGE ( 'NONE', *, *, #191, .F. ) ;
#1228 = VECTOR ( 'NONE', #656, 1000.000000000000000 ) ;
#1229 = CARTESIAN_POINT ( 'NONE',  ( 50.00000000000000000, 12.50000000000001066, -40.00000000000003553 ) ) ;
#1230 = CIRCLE ( 'NONE', #818, 0.9999999999999870104 ) ;
#1231 = AXIS2_PLACEMENT_3D ( 'NONE', #784, #1282, #1093 ) ;
#1232 = DIRECTION ( 'NONE',  ( 1.000000000000000000, 0.000000000000000000, 0.000000000000000000 ) ) ;
#1233 = LINE ( 'NONE', #831, #1057 ) ;
#1234 = ORIENTED_EDGE ( 'NONE', *, *, #1158, .T. ) ;
#1235 = ADVANCED_FACE ( 'NONE', ( #484 ), #592, .T. ) ;
#1236 = DIRECTION ( 'NONE',  ( 0.000000000000000000, 1.000000000000000000, 0.000000000000000000 ) ) ;
#1237 = CARTESIAN_POINT ( 'NONE',  ( -50.00000000000000000, 15.95000000000000639, -34.00000000000002842 ) ) ;
#1238 = CARTESIAN_POINT ( 'NONE',  ( 50.00000000000000000, -12.49999999999999112, 40.00000000000003553 ) ) ;
#1239 = ORIENTED_EDGE ( 'NONE', *, *, #677, .T. ) ;
#1240 = ORIENTED_EDGE ( 'NONE', *, *, #527, .T. ) ;
#1241 = EDGE_CURVE ( 'NONE', #1049, #1152, #903, .T. ) ;
#1242 = CARTESIAN_POINT ( 'NONE',  ( 50.00000000000000000, 17.50000000000001421, -35.00000000000002842 ) ) ;
#1243 = LINE ( 'NONE', #731, #1033 ) ;
#1244 = CARTESIAN_POINT ( 'NONE',  ( 50.00000000000000000, -13.19999999999999574, -35.70000000000006679 ) ) ;
#1245 = LINE ( 'NONE', #1144, #293 ) ;
#1246 = ORIENTED_EDGE ( 'NONE', *, *, #570, .F. ) ;
#1247 = LINE ( 'NONE', #337, #857 ) ;
#1248 = VECTOR ( 'NONE', #1197, 1000.000000000000000 ) ;
#1249 = ADVANCED_FACE ( 'NONE', ( #629 ), #737, .T. ) ;
#1250 = CARTESIAN_POINT ( 'NONE',  ( -50.00000000000000000, -12.49999999999999112, 40.00000000000003553 ) ) ;
#1251 = VECTOR ( 'NONE', #1294, 1000.000000000000000 ) ;
#1252 = PLANE ( 'NONE',  #227 ) ;
#1253 = CARTESIAN_POINT ( 'NONE',  ( 50.00000000000000000, -10.94999999999997975, -34.00000000000002842 ) ) ;
#1254 = ORIENTED_EDGE ( 'NONE', *, *, #1007, .F. ) ;
#1255 = EDGE_LOOP ( 'NONE', ( #42, #861, #71, #921 ) ) ;
#1256 = PLANE ( 'NONE',  #18 ) ;
#1257 = DIRECTION ( 'NONE',  ( 0.000000000000000000, -1.000000000000000000, -4.226417196013700284E-13 ) ) ;
#1258 = DIRECTION ( 'NONE',  ( 0.000000000000000000, -1.000000000000000000, 0.000000000000000000 ) ) ;
#1259 = ORIENTED_EDGE ( 'NONE', *, *, #63, .T. ) ;
#1260 = ORIENTED_EDGE ( 'NONE', *, *, #453, .T. ) ;
#1261 = DIRECTION ( 'NONE',  ( 1.000000000000000000, 0.000000000000000000, 0.000000000000000000 ) ) ;
#1262 = EDGE_LOOP ( 'NONE', ( #174, #232, #166, #847 ) ) ;
#1263 = CARTESIAN_POINT ( 'NONE',  ( 50.00000000000000000, 14.00000000000001243, 34.00000000000000000 ) ) ;
#1264 = EDGE_CURVE ( 'NONE', #828, #919, #958, .T. ) ;
#1265 = ORIENTED_EDGE ( 'NONE', *, *, #17, .T. ) ;
#1266 = DIRECTION ( 'NONE',  ( 0.000000000000000000, 0.000000000000000000, 1.000000000000000000 ) ) ;
#1267 = APPLICATION_CONTEXT ( 'automotive_design' ) ;
#1268 = VECTOR ( 'NONE', #699, 1000.000000000000000 ) ;
#1269 = LINE ( 'NONE', #844, #816 ) ;
#1270 = VECTOR ( 'NONE', #885, 1000.000000000000000 ) ;
#1271 = VECTOR ( 'NONE', #1330, 1000.000000000000000 ) ;
#1272 = ORIENTED_EDGE ( 'NONE', *, *, #770, .F. ) ;
#1273 = DIRECTION ( 'NONE',  ( -0.000000000000000000, 1.000000000000000000, -0.000000000000000000 ) ) ;
#1274 = ORIENTED_EDGE ( 'NONE', *, *, #1225, .F. ) ;
#1275 = EDGE_CURVE ( 'NONE', #908, #323, #945, .T. ) ;
#1276 = PRESENTATION_STYLE_ASSIGNMENT (( #43 ) ) ;
#1277 = CARTESIAN_POINT ( 'NONE',  ( 50.00000000000000000, -12.39999999999952252, -35.10000000000068354 ) ) ;
#1278 = LINE ( 'NONE', #53, #142 ) ;
#1279 = ORIENTED_EDGE ( 'NONE', *, *, #318, .T. ) ;
#1280 = LINE ( 'NONE', #1263, #1141 ) ;
#1281 = ADVANCED_FACE ( 'NONE', ( #1153 ), #110, .T. ) ;
#1282 = DIRECTION ( 'NONE',  ( 0.000000000000000000, -1.000000000000000000, 0.000000000000000000 ) ) ;
#1283 = EDGE_CURVE ( 'NONE', #89, #418, #126, .T. ) ;
#1284 = DIRECTION ( 'NONE',  ( 1.000000000000000000, 0.000000000000000000, 0.000000000000000000 ) ) ;
#1285 = DIRECTION ( 'NONE',  ( -1.000000000000000000, 0.000000000000000000, -0.000000000000000000 ) ) ;
#1286 = ORIENTED_EDGE ( 'NONE', *, *, #602, .T. ) ;
#1287 = DIRECTION ( 'NONE',  ( 0.000000000000000000, -4.289498049685655044E-13, 1.000000000000000000 ) ) ;
#1288 = ORIENTED_EDGE ( 'NONE', *, *, #463, .F. ) ;
#1289 = DIRECTION ( 'NONE',  ( 1.000000000000000000, 0.000000000000000000, 0.000000000000000000 ) ) ;
#1290 = CARTESIAN_POINT ( 'NONE',  ( -50.00000000000000000, -12.39999999999998792, -34.00000000000002842 ) ) ;
#1291 = DIRECTION ( 'NONE',  ( 1.000000000000000000, 0.000000000000000000, 0.000000000000000000 ) ) ;
#1292 = ADVANCED_FACE ( 'NONE', ( #104 ), #1, .F. ) ;
#1293 = ORIENTED_EDGE ( 'NONE', *, *, #1117, .F. ) ;
#1294 = DIRECTION ( 'NONE',  ( -0.000000000000000000, -0.000000000000000000, 1.000000000000000000 ) ) ;
#1295 = VERTEX_POINT ( 'NONE', #613 ) ;
#1296 = AXIS2_PLACEMENT_3D ( 'NONE', #100, #93, #188 ) ;
#1297 = FACE_OUTER_BOUND ( 'NONE', #375, .T. ) ;
#1298 = DIRECTION ( 'NONE',  ( -1.000000000000000000, -0.000000000000000000, -0.000000000000000000 ) ) ;
#1299 = VERTEX_POINT ( 'NONE', #829 ) ;
#1300 = EDGE_CURVE ( 'NONE', #1347, #881, #1247, .T. ) ;
#1301 = DIRECTION ( 'NONE',  ( 0.000000000000000000, 0.000000000000000000, 1.000000000000000000 ) ) ;
#1302 = EDGE_LOOP ( 'NONE', ( #1081, #873, #512, #296 ) ) ;
#1303 = CARTESIAN_POINT ( 'NONE',  ( 50.00000000000000000, 10.95000000000000107, -34.00000000000002842 ) ) ;
#1304 = CARTESIAN_POINT ( 'NONE',  ( 50.00000000000000000, -13.99999999999998579, -35.10000000000002984 ) ) ;
#1305 = ORIENTED_EDGE ( 'NONE', *, *, #1300, .F. ) ;
#1306 =( NAMED_UNIT ( * ) PLANE_ANGLE_UNIT ( ) SI_UNIT ( $, .RADIAN. ) );
#1307 = ORIENTED_EDGE ( 'NONE', *, *, #1217, .F. ) ;
#1308 = EDGE_CURVE ( 'NONE', #842, #217, #316, .T. ) ;
#1309 = CARTESIAN_POINT ( 'NONE',  ( -50.00000000000000000, 10.95000000000000107, -38.50000000000009237 ) ) ;
#1310 = LINE ( 'NONE', #279, #471 ) ;
#1311 = VERTEX_POINT ( 'NONE', #843 ) ;
#1312 = FACE_OUTER_BOUND ( 'NONE', #135, .T. ) ;
#1313 = ORIENTED_EDGE ( 'NONE', *, *, #887, .F. ) ;
#1314 = CIRCLE ( 'NONE', #949, 0.9999999999999800160 ) ;
#1315 = AXIS2_PLACEMENT_3D ( 'NONE', #1193, #598, #1204 ) ;
#1316 = EDGE_CURVE ( 'NONE', #391, #424, #213, .T. ) ;
#1317 = CARTESIAN_POINT ( 'NONE',  ( 50.00000000000000000, -17.49999999999998934, 35.00000000000002842 ) ) ;
#1318 = DIRECTION ( 'NONE',  ( 0.000000000000000000, 0.000000000000000000, 1.000000000000000000 ) ) ;
#1319 = DIRECTION ( 'NONE',  ( 0.000000000000000000, 0.000000000000000000, 1.000000000000000000 ) ) ;
#1320 = ORIENTED_EDGE ( 'NONE', *, *, #518, .F. ) ;
#1321 = CARTESIAN_POINT ( 'NONE',  ( -50.00000000000000000, 13.20000000000000284, 35.69999999999998153 ) ) ;
#1322 = ADVANCED_FACE ( 'NONE', ( #730 ), #1256, .T. ) ;
#1323 = EDGE_CURVE ( 'NONE', #833, #1347, #413, .T. ) ;
#1324 = DIRECTION ( 'NONE',  ( -0.000000000000000000, -4.037174634998161646E-13, 1.000000000000000000 ) ) ;
#1325 = CARTESIAN_POINT ( 'NONE',  ( -50.00000000000000000, -17.49999999999999289, 35.00000000000002842 ) ) ;
#1326 = EDGE_LOOP ( 'NONE', ( #1119, #1108, #255, #936 ) ) ;
#1327 = DIRECTION ( 'NONE',  ( 0.000000000000000000, 0.000000000000000000, -1.000000000000000000 ) ) ;
#1328 = DIRECTION ( 'NONE',  ( 0.000000000000000000, 0.000000000000000000, -1.000000000000000000 ) ) ;
#1329 = EDGE_CURVE ( 'NONE', #369, #505, #225, .T. ) ;
#1330 = DIRECTION ( 'NONE',  ( -1.000000000000000000, -0.000000000000000000, -0.000000000000000000 ) ) ;
#1331 = ORIENTED_EDGE ( 'NONE', *, *, #461, .T. ) ;
#1332 = VECTOR ( 'NONE', #87, 1000.000000000000000 ) ;
#1333 = VECTOR ( 'NONE', #947, 1000.000000000000000 ) ;
#1334 = DIRECTION ( 'NONE',  ( 0.000000000000000000, 0.000000000000000000, -1.000000000000000000 ) ) ;
#1335 = AXIS2_PLACEMENT_3D ( 'NONE', #130, #1157, #852 ) ;
#1336 = AXIS2_PLACEMENT_3D ( 'NONE', #845, #1258, #1068 ) ;
#1337 = CARTESIAN_POINT ( 'NONE',  ( -50.00000000000000000, 14.00000000000045652, -35.10000000000068354 ) ) ;
#1338 = CARTESIAN_POINT ( 'NONE',  ( 50.00000000000000000, -12.49999999999999112, 40.00000000000003553 ) ) ;
#1339 = EDGE_CURVE ( 'NONE', #1299, #961, #1160, .T. ) ;
#1340 = EDGE_LOOP ( 'NONE', ( #398, #1313, #1293, #222 ) ) ;
#1341 = ORIENTED_EDGE ( 'NONE', *, *, #1348, .T. ) ;
#1342 = DIRECTION ( 'NONE',  ( 0.000000000000000000, -0.000000000000000000, -1.000000000000000000 ) ) ;
#1343 = CARTESIAN_POINT ( 'NONE',  ( 50.00000000000000000, 12.50000000000001066, 40.00000000000003553 ) ) ;
#1344 = CARTESIAN_POINT ( 'NONE',  ( -50.00000000000000000, -10.94999999999997975, 34.00000000000000000 ) ) ;
#1345 = DIRECTION ( 'NONE',  ( -0.000000000000000000, -0.000000000000000000, -1.000000000000000000 ) ) ;
#1346 = VERTEX_POINT ( 'NONE', #1147 ) ;
#1347 = VERTEX_POINT ( 'NONE', #751 ) ;
#1348 = EDGE_CURVE ( 'NONE', #1299, #65, #308, .T. ) ;
ENDSEC;
END-ISO-10303-21;
